<ttFont>
          <CharString index="0">
            490 rmoveto
            0 callsubr
            -98 callsubr
            442 -4 callsubr
            -13 vhcurveto
            -208 -442 rmoveto
            -100 -84 87 110 -75 callsubr
            hvcurveto
            return
          </CharString>
          <CharString index="1">
            rmoveto
            -104 callsubr
            165 hmoveto
            -104 callsubr
            endchar
          </CharString>
          <CharString index="2">
            -11 12 8 -2 13 hhcurveto
            9 5 5 5 4 -1 3 -4 5 hvcurveto
            -72 88 -85 callsubr
            -72 -88 rlineto
            -4 -5 -1 -3 -4 vvcurveto
            -5 5 -5 8 13 7 2 11 12 vhcurveto
            endchar
          </CharString>
          <CharString index="3">
            -24 19 -19 24 24 19 19 24 24 -19 19 -24 -24 -19 -19 -24 vhcurveto
            return
          </CharString>
          <CharString index="4">
            503 -107 callsubr
            return
          </CharString>
          <CharString index="5">
            58 245 rmoveto
            133 104 112 128 -89 callsubr
            129 103 -112 -133 -86 callsubr
            -133 -103 -112 -129 -89 callsubr
            -128 -104 112 133 -86 callsubr
            48 hmoveto
            -109 84 -88 100 -89 callsubr
            100 84 88 109 -86 callsubr
            109 -84 89 -100 -89 callsubr
            -100 -84 -89 -109 -86 callsubr
            return
          </CharString>
          <CharString index="6">
            rmoveto
            63 -58 rlineto
            -105 callsubr
          </CharString>
          <CharString index="7">
            -90 callsubr
            -97 callsubr
          </CharString>
          <CharString index="8">
            49 vstem
            93 283 rmoveto
            393 vlineto
            13 11 11 -76 callsubr
            -11 -13 -86 callsubr
            35 callsubr
            -129 105 -104 128 -1 -89 callsubr
            130 1 105 104 129 -31 callsubr
            393 vlineto
            0 vlineto
            13 11 11 -76 callsubr
            -11 -13 -86 callsubr
            35 callsubr
            -156 -127 -127 -157 -89 callsubr
            -155 -127 127 156 -86 callsubr
            return
          </CharString>
          <CharString index="9">
            -72 vlineto
            58 -42 -67 38 -75 hhcurveto
            -129 -103 -111 -134 -134 103 -111 129 75 67 39 58 42 hvcurveto
            -73 -65 callsubr
            return
          </CharString>
          <CharString index="10">
            10 -23 13 -19 -12 -8 -6 -12 -8 vhcurveto
            -62 -93 rlineto
            -2 -3 -2 -4 -4 vvcurveto
            -5 6 -4 7 vhcurveto
            endchar
          </CharString>
          <CharString index="11">
            -82 callsubr
            -93 callsubr
          </CharString>
          <CharString index="12">
            34 56 -41 38 hhcurveto
            36 24 17 58 19 hvcurveto
            1 3 1 6 3 vvcurveto
            10 -8 7 -10 -9 -6 -8 -6 -3 vhcurveto
            -27 -12 -11 -11 -22 hhcurveto
            return
          </CharString>
          <CharString index="13">
            -36 callsubr
            hintmask 11101110
            -95 callsubr
            hintmask 11010110
            -92 callsubr
          </CharString>
          <CharString index="14">
            12 -8 -8 6 -12 hhcurveto
            -19 -23 -13 -10 -6 5 -6 6 -6 hvcurveto
            80 -77 54 callsubr
            7 -2 13 hhcurveto
            endchar
          </CharString>
          <CharString index="15">
            -34 -56 41 -38 hhcurveto
            -36 -24 -17 -58 -19 hvcurveto
            -1 -3 -1 -6 -3 vvcurveto
            -10 8 -7 10 10 5 8 6 3 vhcurveto
            endchar
          </CharString>
          <CharString index="16">
            -2 -4 1 -3 hhcurveto
            -12 5 -7 15 5 12 243 649 rcurveline
            9 4 10 6 10 hhcurveto
            11 10 -6 -9 3 hvcurveto
            243 -649 5 -12 -6 -15 -12 -5 rlinecurve
            return
          </CharString>
          <CharString index="17">
            rmoveto
            13 7 2 11 12 hvcurveto
            80 77 rlineto
            6 6 5 17 callsubr
            return
          </CharString>
          <CharString index="18">
            vhcurveto
            0 vlineto
            return
          </CharString>
          <CharString index="19">
            vhcurveto
            -21 vlineto
            -20 12 -11 15 -4 vhcurveto
            3 -35 -14 -22 -36 -20 rrcurveto
            -5 -3 -3 -5 -5 vvcurveto
            return
          </CharString>
          <CharString index="20">
            310 hmoveto
            0 vlineto
            49 callsubr
            -89 callsubr
            58 55 20 32 41 -86 callsubr
            12 9 2 15 -9 11 -50 callsubr
            -8 9 -14 3 -11 -8 -50 callsubr
            0 vlineto
            -27 -35 -44 -16 -47 -42 callsubr
            -114 -90 88 110 -86 callsubr
            108 90 89 114 -89 callsubr
            47 44 -16 -28 35 -86 callsubr
            11 -8 14 3 8 9 -50 callsubr
            9 11 -2 15 -10 7 -50 callsubr
            34 -43 -55 20 -58 -42 callsubr
            -140 -112 -108 -136 -86 callsubr
            -138 112 -108 140 vhcurveto
            return
          </CharString>
          <CharString index="21">
            hvcurveto
            0 vlineto
            return
          </CharString>
          <CharString index="22">
            rlineto
            11 -9 -7 7 -12 hhcurveto
            -8 hlineto
            -12 -7 -7 -11 -9 hvcurveto
            return
          </CharString>
          <CharString index="23">
            173 -14 callsubr
            243 28 callsubr
            468 -99 callsubr
            return
          </CharString>
          <CharString index="24">
            -12 callsubr
            922 -20 hstemhm
            hintmask 10100000
            549 -62 callsubr
            hintmask 01100000
            -91 callsubr
            hintmask 10100000
            -72 callsubr
            return
          </CharString>
          <CharString index="25">
            rmoveto
            7 6 4 5 4 -2 4 -2 3 hvcurveto
            -62 93 rlineto
            return
          </CharString>
          <CharString index="26">
            -78 callsubr
            endchar
          </CharString>
          <CharString index="27">
            -126 175 126 173 rlineto
            4 5 2 6 6 -30 callsubr
            -137 -179 rlineto
            -7 -9 -3 -6 -7 vvcurveto
            -7 3 -6 7 -9 vhcurveto
            137 -179 rlineto
            -7 5 return
          </CharString>
          <CharString index="28">
            53 -43 callsubr
            0 211 hstemhm
            58 9 callsubr
            hintmask 11011000
            -102 callsubr
            return
          </CharString>
          <CharString index="29">
            -48 callsubr
            18 -15 15 -18 -18 -15 -15 -18 -88 callsubr
            return
          </CharString>
          <CharString index="30">
            10 -8 5 -7 -9 -25 -14 -18 -18 vhcurveto
            -18 -18 -9 -30 -56 vvcurveto
            -25 vlineto
            -18 15 -15 18 18 15 15 18 vhcurveto
            21 vlineto
            20 -12 11 -15 4 vhcurveto
            -3 35 14 22 36 20 rrcurveto
            5 3 3 5 5 vvcurveto
            return
          </CharString>
          <CharString index="31">
            13 -89 callsubr
            14 11 return
          </CharString>
          <CharString index="32">
            110 84 88 100 101 83 -88 -110 -110 -83 -87 -101 return
          </CharString>
          <CharString index="33">
            vlineto
            -32 callsubr
            -61 callsubr
            -20 callsubr
            return
          </CharString>
          <CharString index="34">
            -28 22 -22 28 28 22 22 28 28 -22 22 -28 -28 -22 -22 -28 vhcurveto
            return
          </CharString>
          <CharString index="35">
            -4 -2 -1 -3 hhcurveto
            -9 -10 6 10 -4 hvcurveto
            -363 214 rmoveto
            283 hlineto
            -141 376 rlineto
            return
          </CharString>
          <CharString index="36">
            -20 hstem
            83 48 302 45 callsubr
            64 callsubr
            87 callsubr
            13 -89 callsubr
            13 11 -38 callsubr
            -84 67 -67 83 -1 -89 callsubr
            84 1 68 67 84 -31 callsubr
            13 callsubr
            12 10 12 -89 callsubr
            14 11 -38 callsubr
            -110 -89 -90 -112 -89 callsubr
            -110 -88 90 110 -86 callsubr
            return
          </CharString>
          <CharString index="37">
            -126 -173 rlineto
            -4 -5 -2 -6 -6 vvcurveto
            -27 callsubr
            137 179 rlineto
            7 9 3 6 7 vvcurveto
            7 -3 6 -7 9 vhcurveto
            -137 179 rlineto
            7 -5 return
          </CharString>
          <CharString index="38">
            6 -15 callsubr
            0 223 hstemhm
            104 49 hintmask 11101000
            104 -6 callsubr
            2 hlineto
            358 62 callsubr
            -11 -13 -14 -10 -11 -14 hvcurveto
            -335 -277 78 callsubr
            -11 -14 -34 callsubr
            -293 -276 335 62 callsubr
            -11 -14 -13 -10 -11 -14 hvcurveto
            -357 hlineto
            -3 hlineto
            -2 hlineto
            -12 1 -10 10 13 vvcurveto
            return
          </CharString>
          <CharString index="39">
            -20 hstem
            94 49 84 callsubr
            442 vlineto
            87 callsubr
            -76 callsubr
            -33 callsubr
            -442 -74 callsubr
            return
          </CharString>
          <CharString index="40">
            vlineto
            13 -11 11 -61 callsubr
            -11 -13 hvcurveto
            return
          </CharString>
          <CharString index="41">
            -88 callsubr
            180 hmoveto
            -81 callsubr
          </CharString>
          <CharString index="42">
            vlineto
            81 callsubr
            27 callsubr
            vhcurveto
            return
          </CharString>
          <CharString index="43">
            -36 callsubr
            hintmask 10010000
            -95 callsubr
            hintmask 01100000
            -92 callsubr
          </CharString>
          <CharString index="44">
            rmoveto
            -15 -2 7 -4 9 hhcurveto
            9 4 5 13 4 hvcurveto
            57 201 rlineto
            2 9 3 9 6 vvcurveto
            12 -7 5 -9 vhcurveto
            -19 hlineto
            -16 -9 -8 -18 -3 hvcurveto
            return
          </CharString>
          <CharString index="45">
            16 rmoveto
            -62 165 rlineto
            -319 hlineto
            -62 -165 rlineto
            -10 -4 -9 -6 -10 hhcurveto
            return
          </CharString>
          <CharString index="46">
            -14 -51 callsubr
            return
          </CharString>
          <CharString index="47">
            -12 -9 -9 -12 -1 hvcurveto
            -1 -7 3 -4 4 -6 126 -175 rcurveline
            -70 callsubr
            -5 4 -9 hhcurveto
            endchar
          </CharString>
          <CharString index="48">
            12 10 9 12 6 -2 6 -4 5 hvcurveto
            -80 callsubr
            6 -4 8 hhcurveto
            endchar
          </CharString>
          <CharString index="49">
            24 rmoveto
            -57 callsubr
            return
          </CharString>
          <CharString index="50">
            -55 callsubr
            vhcurveto
            return
          </CharString>
          <CharString index="51">
            vstem
            296 24 rmoveto
            312 vlineto
            -235 321 -7 11 2 16 10 7 rlinecurve
            11 9 16 -2 7 -11 219 -301 rcurveline
            220 301 7 11 16 2 11 -9 rlinecurve
            11 -7 2 -16 -8 -11 -234 -319 rcurveline
            -314 vlineto
            -13 -10 -11 -14 -13 -11 88 callsubr
            return
          </CharString>
          <CharString index="52">
            81 callsubr
            -13 callsubr
            return
          </CharString>
          <CharString index="53">
            rmoveto
            63 -58 rlineto
            hintmask 10111100
            -105 callsubr
          </CharString>
          <CharString index="54">
            vlineto
            -13 11 -11 -76 callsubr
            11 13 hvcurveto
            return
          </CharString>
          <CharString index="55">
            rmoveto
            -63 58 rlineto
            11 -12 -8 2 -13 hhcurveto
            -9 -5 -5 -5 -4 1 -3 4 -5 hvcurveto
            72 -88 rlineto
            -11 9 7 -7 12 hhcurveto
            8 hlineto
            12 7 7 11 9 hvcurveto
            72 88 rlineto
            4 5 1 3 4 vvcurveto
            5 -5 5 -8 -13 -7 -2 -11 -12 vhcurveto
            return
          </CharString>
          <CharString index="56">
            -89 callsubr
            -13 -11 return
          </CharString>
          <CharString index="57">
            rrcurveto
            0 vlineto
            return
          </CharString>
          <CharString index="58">
            13 -11 11 -14 -32 callsubr
            -13 vhcurveto
            return
          </CharString>
          <CharString index="59">
            -47 callsubr
            -37 callsubr
            return
          </CharString>
          <CharString index="60">
            -10 8 -5 7 9 25 14 18 18 vhcurveto
            return
          </CharString>
          <CharString index="61">
            48 callsubr
            701 -68 callsubr
            return
          </CharString>
          <CharString index="62">
            62 callsubr
            11 13 14 -10 11 -14 hvcurveto
            -335 276 78 callsubr
            11 13 82 callsubr
            hvcurveto
            -293 277 335 62 callsubr
            11 14 13 -10 11 -14 hvcurveto
            return
          </CharString>
          <CharString index="63">
            vlineto
            -49 callsubr
            return
          </CharString>
          <CharString index="64">
            0 48 395 47 return
          </CharString>
          <CharString index="65">
            hhcurveto
            0 vlineto
            return
          </CharString>
          <CharString index="66">
            84 72 44 68 43 hvcurveto
            7 11 -4 14 -11 8 -10 6 -16 -2 -7 -12 rrcurveto
            -54 -33 -59 -35 -66 hhcurveto
            -102 -84 81 107 -5 hvcurveto
            404 hlineto
            27 callsubr
            hvcurveto
            return
          </CharString>
          <CharString index="67">
            -37 callsubr
            19 -14 14 -19 -19 -14 -14 -19 -88 callsubr
            return
          </CharString>
          <CharString index="68">
            24 rmoveto
            0 -53 callsubr
            652 vlineto
            0 -67 callsubr
            -652 vlineto
            endchar
          </CharString>
          <CharString index="69">
            -33 callsubr
            30 callsubr
            return
          </CharString>
          <CharString index="70">
            18 18 9 30 56 vvcurveto
            25 vlineto
            return
          </CharString>
          <CharString index="71">
            rmoveto
            27 12 11 11 22 hhcurveto
            return
          </CharString>
          <CharString index="72">
            8 11 -2 16 -11 7 rlinecurve
            -11 9 -16 -2 -7 -11 -220 -301 rcurveline
            -219 301 33 callsubr
            -9 rlinecurve
            -10 -7 -2 -16 7 -11 return
          </CharString>
          <CharString index="73">
            -32 callsubr
            -13 hvcurveto
            return
          </CharString>
          <CharString index="74">
            -10 -14 -86 callsubr
            return
          </CharString>
          <CharString index="75">
            -13 -11 -11 return
          </CharString>
          <CharString index="76">
            vvcurveto
            0 vlineto
            return
          </CharString>
          <CharString index="77">
            vvcurveto
            12 -10 9 -12 -8 -6 -4 -7 -5 vhcurveto
            return
          </CharString>
          <CharString index="78">
            hlineto
            27 callsubr
            13 -11 return
          </CharString>
          <CharString index="79">
            -29 callsubr
            11 -13 hvcurveto
            return
          </CharString>
          <CharString index="80">
            -12 10 -9 12 8 6 4 7 5 vhcurveto
            return
          </CharString>
          <CharString index="81">
            21 -21 700 -20 return
          </CharString>
          <CharString index="82">
            13 11 11 return
          </CharString>
          <CharString index="83">
            hlineto
            27 158 rlineto
            hintmask 10010000
            14 2 -7 15 -17 hhcurveto
            -13 -10 -9 -13 -2 hvcurveto
            hintmask 10100000
            -28 -165 rlineto
            return
          </CharString>
          <CharString index="84">
            -163 386 -4 12 -15 6 -12 -5 rlinecurve
            -11 -5 -6 -14 5 -12 184 -438 rcurveline
            2 -5 3 return
          </CharString>
          <CharString index="85">
            -67 -42 -73 -44 -83 hhcurveto
            442 vmoveto
            -92 -77 -66 -93 -18 hvcurveto
            371 hlineto
            92 -16 -78 67 -90 hhcurveto
            return
          </CharString>
          <CharString index="86">
            rmoveto
            93 62 85 94 -3 callsubr
            92 -61 85 -92 -93 -62 -85 -94 18 callsubr
            -93 61 -84 92 vhcurveto
            return
          </CharString>
          <CharString index="87">
            11 13 -86 callsubr
            return
          </CharString>
          <CharString index="88">
            52 -11 52 11 -20 hstemhm
            return
          </CharString>
          <CharString index="89">
            106 -6 rlineto
            12 -1 11 10 12 vvcurveto
            12 -11 11 -12 -1 vhcurveto
            -105 -6 6 123 rlineto
            return
          </CharString>
          <CharString index="90">
            166 -1 135 -134 -167 vvcurveto
            -166 -135 -134 -166 vhcurveto
            endchar
          </CharString>
          <CharString index="91">
            47 callsubr
            14 10 88 callsubr
            return
          </CharString>
          <CharString index="92">
            0 49 276 49 277 49 return
          </CharString>
          <CharString index="93">
            0 49 651 -20 return
          </CharString>
          <CharString index="94">
            51 callsubr
            13 return
          </CharString>
          <CharString index="95">
            21 -21 22 -21 return
          </CharString>
          <CharString index="96">
            13 -11 11 -13 return
          </CharString>
          <CharString index="97">
            -14 -2 7 -15 17 hhcurveto
            13 10 9 13 2 hvcurveto
            hintmask 01100000
            29 169 rlineto
            return
          </CharString>
          <CharString index="98">
            rmoveto
            -73 callsubr
            return
          </CharString>
          <CharString index="99">
            15 1 -10 11 -15 hhcurveto
            -15 -10 -11 -15 1 hvcurveto
            6 -123 -105 6 rlineto
            return
          </CharString>
          <CharString index="100">
            3 4 -1 2 hhcurveto
            10 9 6 10 4 hvcurveto
            62 165 rlineto
            319 hlineto
            return
          </CharString>
          <CharString index="101">
            24 rmoveto
            652 vlineto
            27 callsubr
            vhcurveto
            return
          </CharString>
          <CharString index="102">
            -26 callsubr
            hstem
            93 49 vstem
            93 return
          </CharString>
          <CharString index="103">
            89 callsubr
            10 return
          </CharString>
          <CharString index="104">
            hvcurveto
            2 vlineto
            return
          </CharString>
          <CharString index="105">
            193 157 156 193 193 -157 158 -193 hvcurveto
            return
          </CharString>
          <CharString index="106">
            -11 14 27 callsubr
            vhcurveto
            return
          </CharString>
          <CharString index="107">
            -13 -11 53 callsubr
            return
          </CharString>
          <CharString index="108">
            -49 callsubr
            -652 vlineto
            81 callsubr
            return
          </CharString>
          <CharString index="109">
            -22 18 -18 22 22 18 18 22 vhcurveto
            17 vlineto
            22 -18 18 -22 vhcurveto
            return
          </CharString>
          <CharString index="110">
            73 42 61 59 56 47 -58 -78 18 callsubr
            -75 -42 -59 -59 vhcurveto
            return
          </CharString>
          <CharString index="111">
            15 callsubr
            11 -11 13 hvcurveto
            return
          </CharString>
          <CharString index="112">
            159 -89 callsubr
            154 130 return
          </CharString>
          <CharString index="113">
            -187 -42 callsubr
            -189 -148 return
          </CharString>
          <CharString index="114">
            189 -42 callsubr
            187 147 return
          </CharString>
          <CharString index="115">
            -154 -42 callsubr
            -159 -130 return
          </CharString>
          <CharString index="116">
            48 368 48 return
          </CharString>
          <CharString index="117">
            -12 1 -11 -11 -12 vvcurveto
            -12 11 -10 12 1 vhcurveto
            106 6 return
          </CharString>
          <CharString index="118">
            10 rmoveto
            -43 hlineto
            -77 -113 rlineto
            -4 -7 -1 -4 -4 vvcurveto
            return
          </CharString>
          <CharString index="119">
            64 -21 424 -20 hstem
            return
          </CharString>
          <CharString index="120">
            64 callsubr
            0 vlineto
            14 return
          </CharString>
          <CharString index="121">
            -13 10 -10 12 -1 vhcurveto
            return
          </CharString>
          <CharString index="122">
            -32 callsubr
            -13 -13 return
          </CharString>
          <CharString index="123">
            -12 -11 -10 -13 vhcurveto
            return
          </CharString>
          <CharString index="124">
            6 6 vvcurveto
            return
          </CharString>
          <CharString index="125">
            vhcurveto
            -2 vlineto
            return
          </CharString>
          <CharString index="126">
            1 vlineto
            48 -43 40 -49 -46 -43 -40 -48 vhcurveto
            -1 vlineto
            return
          </CharString>
          <CharString index="127">
            -18 -48 hhcurveto
            -48 -47 18 36 -37 hvcurveto
            -10 10 -16 0 return
          </CharString>
          <CharString index="128">
            1 vlineto
            25 21 24 25 29 20 -24 -25 vhcurveto
            -1 vlineto
            return
          </CharString>
          <CharString index="129">
            0 48 0 188 0 47 0 159 0 48 return
          </CharString>
          <CharString index="130">
            -11 18 -13 16 15 5 8 12 6 vhcurveto
            endchar
          </CharString>
          <CharString index="131">
            hlineto
            -14 -12 -12 -14 50 callsubr
            hvcurveto
            endchar
          </CharString>
          <CharString index="132">
            -12 callsubr
            180 49 return
          </CharString>
          <CharString index="133">
            263 0 49 611 50 return
          </CharString>
          <CharString index="134">
            -25 callsubr
            13 return
          </CharString>
          <CharString index="135">
            -20 61 callsubr
            return
          </CharString>
          <CharString index="136">
            21 -21 hstem
            return
          </CharString>
          <CharString index="137">
            -267 vlineto
            return
          </CharString>
          <CharString index="138">
            3 2 1 4 hhcurveto
            12 5 6 15 -5 12 return
          </CharString>
          <CharString index="139">
            0 90 callsubr
            vhcurveto
            return
          </CharString>
          <CharString index="140">
            -7 11 -16 2 -11 return
          </CharString>
          <CharString index="141">
            rmoveto
            0 vlineto
            return
          </CharString>
          <CharString index="142">
            -393 vlineto
            return
          </CharString>
          <CharString index="143">
            1 1 1 return
          </CharString>
          <CharString index="144">
            52 -42 -21 52 52 11 -20 hstemhm
            hintmask 01100000
            return
          </CharString>
          <CharString index="145">
            hlineto
            11 9 9 11 11 -9 9 -11 hvcurveto
            return
          </CharString>
          <CharString index="146">
            vlineto
            0 vlineto
            -11 callsubr
            -89 callsubr
            return
          </CharString>
          <CharString index="147">
            hlineto
            -11 -9 -9 -11 -11 9 -9 11 hvcurveto
            return
          </CharString>
          <CharString index="148">
            hlineto
            14 12 12 14 14 -12 12 -14 hvcurveto
            return
          </CharString>
          <CharString index="149">
            hlineto
            10 9 9 10 10 -9 9 -10 hvcurveto
            return
          </CharString>
          <CharString index="150">
            hlineto
            -10 -9 -9 -10 -10 9 -9 10 hvcurveto
            return
          </CharString>
          <CharString index="151">
            141 -376 rlineto
            -283 hlineto
            endchar
          </CharString>
          <CharString index="152">
            49 vstem
            83 200 rmoveto
            return
          </CharString>
          <CharString index="153">
            0 49 602 49 hstem
            return
          </CharString>
          <CharString index="154">
            74 callsubr
            13 return
          </CharString>
          <CharString index="155">
            -306 21 -21 return
          </CharString>
          <CharString index="156">
            0 0 0 0 return
          </CharString>
          <CharString index="157">
            -14 12 -12 14 return
          </CharString>
          <CharString index="158">
            14 11 11 return
          </CharString>
          <CharString index="159">
            14 -11 11 return
          </CharString>
          <CharString index="160">
            -10 -14 hvcurveto
            return
          </CharString>
          <CharString index="161">
            rlineto
            -11 12 return
          </CharString>
          <CharString index="162">
            91 77 -68 -91 17 hvcurveto
            -373 hlineto
            return
          </CharString>
          <CharString index="163">
            -25 callsubr
            14 76 callsubr
            return
          </CharString>
          <CharString index="164">
            -157 -130 38 754 38 hstem
            return
          </CharString>
          <CharString index="165">
            -13 11 -10 12 13 11 10 13 vhcurveto
            return
          </CharString>
          <CharString index="166">
            -32 callsubr
            -13 -14 11 -11 13 hvcurveto
            return
          </CharString>
          <CharString index="167">
            -266 vlineto
            return
          </CharString>
          <CharString index="168">
            hstem
            93 49 return
          </CharString>
          <CharString index="169">
            hlineto
            14 10 return
          </CharString>
          <CharString index="170">
            266 vlineto
            return
          </CharString>
          <CharString index="171">
            267 vlineto
            return
          </CharString>
          <CharString index="172">
            271 52 hstem
            92 271 rmoveto
            return
          </CharString>
          <CharString index="173">
            136 166 165 136 return
          </CharString>
          <CharString index="174">
            127 -10 -101 101 -126 hhcurveto
            return
          </CharString>
          <CharString index="175">
            -16 vhcurveto
            -356 0 hlineto
            -16 -12 return
          </CharString>
          <CharString index="176">
            0 356 0 vlineto
            16 12 12 return
          </CharString>
          <CharString index="177">
            -87 613 -21 131 -20 hstem
            return
          </CharString>
          <CharString index="178">
            -157 -97 56 688 56 hstem
            return
          </CharString>
          <CharString index="179">
            vlineto
            -10 vlineto
            -10 vlineto
            49 18 rmoveto
            return
          </CharString>
          <CharString index="180">
            -108 -84 -87 -104 return
          </CharString>
          <CharString index="181">
            24 rmoveto
            -13 11 -11 return
          </CharString>
          <CharString index="182">
            85 callsubr
            hvcurveto
            return
          </CharString>
          <CharString index="183">
            -11 callsubr
            hvcurveto
            return
          </CharString>
          <CharString index="184">
            -21 194 -20 hstem
            return
          </CharString>
          <CharString index="185">
            293 hlineto
            13 11 return
          </CharString>
          <CharString index="186">
            5 7 -4 8 hhcurveto
            return
          </CharString>
          <CharString index="187">
            26 21 -21 441 return
          </CharString>
          <CharString index="188">
            -13 11 -11 13 return
          </CharString>
          <CharString index="189">
            52 callsubr
            -13 return
          </CharString>
          <CharString index="190">
            1 0 1 1 return
          </CharString>
          <CharString index="191">
            vstem
            94 24 rmoveto
            return
          </CharString>
          <CharString index="192">
            52 callsubr
            -14 return
          </CharString>
          <CharString index="193">
            73 49 574 return
          </CharString>
          <CharString index="194">
            14 11 10 return
          </CharString>
          <CharString index="195">
            11 13 vhcurveto
            return
          </CharString>
          <CharString index="196">
            vlineto
            14 -11 return
          </CharString>
          <CharString index="197">
            -1 1 -1 return
          </CharString>
        <CharString name=".notdef">
          -87 endchar
        </CharString>
        <CharString name="A">
          59 25 callsubr
          467 -20 hstemhm
          hintmask 10110000
          549 16 rmoveto
          -10 4 10 -6 9 hhcurveto
          hintmask 01110000
          31 callsubr
          -243 649 rcurveline
          9 -3 -10 6 -11 hhcurveto
          -10 -10 -6 -9 -4 hvcurveto
          -243 -649 -5 -12 7 -15 12 -5 rlinecurve
          hintmask 10110000
          -7 callsubr
          -159 425 rmoveto
          44 callsubr
        </CharString>
        <CharString name="AE">
          458 0 48 -32 -21 201 47 86 48 275 48 hstemhm
          494 52 hintmask 01111100
          35 19 rmoveto
          81 callsubr
          9 8 5 8 5 vhcurveto
          113 188 rlineto
          300 -170 hlineto
          hintmask 10111100
          50 callsubr
          vhcurveto
          442 -28 callsubr
          -416 281 366 -28 callsubr
          -366 275 411 -28 callsubr
          -497 hlineto
          -13 -7 -6 -10 -6 hvcurveto
          -394 -651 rlineto
          -3 -5 -2 -5 -4 vvcurveto
          187 224 rmoveto
          246 410 rlineto
          26 -410 hlineto
          endchar
        </CharString>
        <CharString name="Aacute">
          59 -83 callsubr
          -55 186 -100 callsubr
        </CharString>
        <CharString name="Acircumflex">
          77 25 callsubr
          690 -20 hstemhm
          hintmask 10110000
          550 -62 callsubr
          hintmask 01110000
          -91 callsubr
          hintmask 10110000
          -72 callsubr
          -1 257 -101 callsubr
        </CharString>
        <CharString name="Adieresis">
          76 -12 callsubr
          793 86 hstemhm
          204 86 79 86 hintmask 10111000
          550 -62 callsubr
          hintmask 01111000
          -91 callsubr
          hintmask 10111000
          -72 callsubr
          -125 231 -106 callsubr
        </CharString>
        <CharString name="Agrave">
          62 -83 callsubr
          54 186 -96 callsubr
        </CharString>
        <CharString name="Aring">
          59 25 callsubr
          527 39 hstemhm
          228 181 -43 43 hintmask 01111000
          582 33 rmoveto
          -224 597 rlineto
          30 15 21 30 32 vvcurveto
          19 callsubr
          -30 19 -29 26 -15 vhcurveto
          -225 -600 -5 -12 7 -15 12 -5 rlinecurve
          hintmask 10111000
          -7 callsubr
          62 -165 rlineto
          -10 4 10 -6 9 hhcurveto
          hintmask 01110100
          31 callsubr
          rrcurveto
          -311 674 rmoveto
          21 callsubr
          -15 -8 -15 -14 -8 vhcurveto
          -5 -8 -9 -3 -10 hhcurveto
          -11 -11 5 7 -8 hvcurveto
          -10 8 -6 13 13 vvcurveto
          -97 -477 rmoveto
          142 376 44 callsubr
        </CharString>
        <CharString name="Atilde">
          77 -12 callsubr
          794 -19 callsubr
          hintmask 10010000
          550 -62 callsubr
          hintmask 01010000
          -91 callsubr
          hintmask 10010000
          -72 callsubr
          -109 192 -36 callsubr
          hintmask 10101000
          -95 callsubr
          hintmask 10010000
          -92 callsubr
        </CharString>
        <CharString name="B">
          7 0 49 302 50 250 49 hstem
          104 49 256 49 21 49 vstem
          104 24 rmoveto
          -13 10 -11 13 vhcurveto
          1 hlineto
          3 hlineto
          197 hlineto
          110 90 89 111 88 -58 74 -79 27 hvcurveto
          40 32 27 49 55 vvcurveto
          97 -78 78 -96 vhcurveto
          -153 hlineto
          -3 hlineto
          -34 callsubr
          49 -627 rmoveto
          302 175 vlineto
          83 67 -68 -83 1 hvcurveto
          -84 -1 -67 -67 -83 hhcurveto
          -175 352 rmoveto
          250 131 vlineto
          69 56 -56 -70 -68 -56 -56 -69 hvcurveto
          endchar
        </CharString>
        <CharString name="C">
          184 0 49 612 49 hstem
          73 49 vstem
          73 353 34 callsubr
          -195 163 -158 201 -89 callsubr
          86 79 29 47 61 -86 callsubr
          11 8 2 18 -10 9 -50 callsubr
          -7 12 -16 2 -12 -8 -50 callsubr
          -44 -52 -68 -24 -74 -42 callsubr
          -175 -140 137 167 -86 callsubr
          171 140 137 175 -89 callsubr
          74 68 -26 -42 54 -86 callsubr
          10 -8 16 1 8 12 -50 callsubr
          9 9 -2 17 -11 9 -50 callsubr
          47 -61 -79 30 -86 -42 callsubr
          -201 -1 -163 -157 -199 vvcurveto
          endchar
        </CharString>
        <CharString name="Ccedilla">
          184 153 0 67 203 endchar
        </CharString>
        <CharString name="D">
          132 46 callsubr
          104 49 407 49 vstem
          259 hmoveto
          -2 callsubr
          -128 hlineto
          -3 hlineto
          -34 callsubr
          -652 vlineto
          14 callsubr
          4 hlineto
          23 49 rmoveto
          602 106 vlineto
          -17 callsubr
        </CharString>
        <CharString name="E">
          6 -15 callsubr
          hstem
          104 49 vstem
          104 24 rmoveto
          14 callsubr
          2 hlineto
          3 hlineto
          357 -45 callsubr
          -358 hlineto
          -2 hlineto
          -34 callsubr
          -652 vlineto
          endchar
        </CharString>
        <CharString name="Eacute">
          -69 callsubr
          147 768 -90 callsubr
          hintmask 11011000
          -97 callsubr
        </CharString>
        <CharString name="Ecircumflex">
          6 56 200 69 195 endchar
        </CharString>
        <CharString name="Edieresis">
          83 -15 callsubr
          94 86 hstem
          104 49 114 79 vstem
          104 -6 callsubr
          2 hlineto
          358 62 callsubr
          -11 -13 -14 -10 -11 -14 hvcurveto
          -335 -277 78 callsubr
          -11 -14 -34 callsubr
          -293 -276 335 62 callsubr
          -11 -14 -13 -10 -11 -14 hvcurveto
          -357 hlineto
          -3 hlineto
          -2 hlineto
          -12 1 -10 10 13 vvcurveto
          77 813 -106 callsubr
        </CharString>
        <CharString name="Egrave">
          -69 callsubr
          260 768 -82 callsubr
          hintmask 11011000
          -93 callsubr
        </CharString>
        <CharString name="Eth">
          225 0 49 281 38 283 49 hstem
          158 49 407 49 vstem
          158 330 rmoveto
          -306 vlineto
          14 callsubr
          133 hlineto
          -2 callsubr
          -131 hlineto
          -34 callsubr
          -308 -84 vlineto
          -11 -8 -7 -11 -12 8 -8 11 hvcurveto
          133 -281 rmoveto
          281 80 vlineto
          10 9 8 12 11 -9 7 -10 hvcurveto
          -80 283 106 hlineto
          -17 callsubr
        </CharString>
        <CharString name="F">
          18 21 -21 325 49 277 49 hstem
          104 49 vstem
          104 -58 callsubr
          301 294 vlineto
          -13 callsubr
          75 callsubr
          -294 277 336 hlineto
          56 callsubr
          -358 hlineto
          -4 hlineto
          -13 -1 -10 -10 -13 vvcurveto
          -652 vlineto
          endchar
        </CharString>
        <CharString name="G">
          227 0 49 266 49 297 49 hstem
          73 49 500 50 vstem
          622 315 rmoveto
          -206 vlineto
          -38 -52 -65 -22 -68 hhcurveto
          -175 -140 137 170 168 140 137 175 75 69 -26 -42 51 hvcurveto
          12 -8 15 2 8 10 9 10 -3 17 -9 7 rrcurveto
          49 -63 -77 30 -87 hhcurveto
          -201 -163 -159 -195 -198 163 -157 201 -1 hvcurveto
          86 78 28 49 62 hvcurveto
          5 4 3 7 1 7 rrcurveto
          4 vlineto
          240 vlineto
          13 -10 11 -12 1 vhcurveto
          -3 hlineto
          -216 hlineto
          -14 -11 -11 -14 -14 11 -10 14 hvcurveto
          endchar
        </CharString>
        <CharString name="H">
          122 21 -21 326 48 326 -20 hstem
          104 49 360 49 vstem
          513 -58 callsubr
          652 -44 callsubr
          -302 -360 302 vlineto
          1 callsubr
          51 callsubr
          13 vhcurveto
          302 360 -302 vlineto
          endchar
        </CharString>
        <CharString name="I">
          -282 -26 callsubr
          hstem
          111 49 vstem
          111 -39 callsubr
        </CharString>
        <CharString name="Iacute">
          -313 -26 callsubr
          243 -20 hstem
          127 49 vstem
          127 -6 callsubr
          0 vlineto
          14 11 -11 -13 -86 callsubr
          -652 -74 callsubr
          -31 768 -100 callsubr
        </CharString>
        <CharString name="Icircumflex">
          -313 -26 callsubr
          240 -20 hstem
          86 49 vstem
          86 -6 callsubr
          0 vlineto
          14 11 -11 -13 -86 callsubr
          -652 -74 callsubr
          23 839 -101 callsubr
        </CharString>
        <CharString name="Idieresis">
          -313 -26 callsubr
          114 86 hstem
          -8 86 79 86 vstem
          93 -6 callsubr
          0 vlineto
          14 11 -11 -13 -86 callsubr
          -652 -74 callsubr
          -101 813 -106 callsubr
        </CharString>
        <CharString name="Igrave">
          -239 -26 callsubr
          243 -20 hstem
          191 49 vstem
          191 -6 callsubr
          0 vlineto
          14 11 -11 -13 -86 callsubr
          -652 -74 callsubr
          80 768 -96 callsubr
        </CharString>
        <CharString name="J">
          7 -14 callsubr
          hstem
          461 48 vstem
          46 164 34 callsubr
          -95 30 91 -69 105 -42 callsubr
          131 106 105 132 hvcurveto
          439 39 callsubr
          -34 callsubr
          -439 vlineto
          0 vlineto
          -104 -85 -84 -104 -89 callsubr
          -84 -1 -71 55 -25 77 -50 callsubr
          -3 12 -14 7 -13 -4 -50 callsubr
          -13 -4 -7 -14 4 -13 rrcurveto
          endchar
        </CharString>
        <CharString name="K">
          128 29 callsubr
          104 49 vstem
          104 -58 callsubr
          175 vlineto
          154 154 271 -344 rlineto
          -7 5 6 -2 7 hhcurveto
          6 5 1 4 5 hvcurveto
          10 10 2 14 -8 11 -274 348 rcurveline
          268 268 10 10 0 16 -10 9 rlinecurve
          -8 9 -16 0 -10 -9 -423 -423 rcurveline
          405 vlineto
          85 callsubr
          -32 callsubr
          -14 vhcurveto
          -649 vlineto
          endchar
        </CharString>
        <CharString name="L">
          -24 -14 callsubr
          hstem
          104 49 vstem
          488 hmoveto
          -13 callsubr
          75 callsubr
          -335 627 hlineto
          1 callsubr
          vhcurveto
          2 hlineto
          endchar
        </CharString>
        <CharString name="M">
          257 29 callsubr
          104 49 491 48 vstem
          644 24 rmoveto
          -13 10 -1 callsubr
          648 vlineto
          4 -2 5 -2 4 vhcurveto
          -2 3 -2 2 -3 3 -11 7 -16 -2 -7 -11 -248 -345 rcurveline
          -249 345 -8 11 -15 2 -11 -7 rlinecurve
          -1 -1 -1 0 -1 vvcurveto
          -6 -4 -4 -7 -8 vvcurveto
          -648 vlineto
          -13 11 -1 callsubr
          575 vlineto
          224 -310 rlineto
          -8 5 7 -3 9 hhcurveto
          2 hlineto
          7 8 3 8 5 hvcurveto
          224 311 rlineto
          -576 vlineto
          endchar
        </CharString>
        <CharString name="N">
          184 29 callsubr
          107 48 419 49 vstem
          575 13 rmoveto
          1 -2 2 90 callsubr
          rrcurveto
          -6 5 6 -3 8 hhcurveto
          -13 callsubr
          hvcurveto
          645 -44 callsubr
          -570 vlineto
          -424 588 33 callsubr
          -7 rlinecurve
          -9 -7 -3 -10 3 -10 rrcurveto
          -642 -65 callsubr
          573 vlineto
          420 -584 rlineto
          endchar
        </CharString>
        <CharString name="Ntilde">
          203 21 -21 795 -19 callsubr
          107 48 419 49 hintmask 10101100
          575 13 rmoveto
          -420 584 rlineto
          -573 vlineto
          15 callsubr
          -11 88 callsubr
          642 vlineto
          -3 10 3 10 9 7 11 7 16 -2 7 -11 424 -588 rcurveline
          570 vlineto
          27 callsubr
          14 11 -11 -13 vhcurveto
          -645 vlineto
          -32 callsubr
          -14 -8 -6 3 6 -5 vhcurveto
          -1 1 -2 1 -1 2 rrcurveto
          -320 785 -36 callsubr
          hintmask 11011100
          -95 callsubr
          hintmask 10101100
          -92 callsubr
        </CharString>
        <CharString name="O">
          26 callsubr
          hstem
          86 callsubr
          50 vstem
          73 355 34 callsubr
          -196 1 148 -159 7 callsubr
          159 196 1 -86 callsubr
          196 -1 -147 159 6 callsubr
          -159 -196 -1 hvcurveto
          49 hmoveto
          0 vlineto
          173 130 132 5 callsubr
          -132 -173 1 -86 callsubr
          -171 -1 -130 -135 8 callsubr
          135 171 hvcurveto
          endchar
        </CharString>
        <CharString name="OE">
          856 0 49 276 49 286 40 10 -20 hstemhm
          86 callsubr
          60 hintmask 11101100
          707 24 rmoveto
          14 callsubr
          362 -45 callsubr
          -360 hlineto
          -34 callsubr
          -155 vlineto
          hintmask 11011100
          112 -56 -111 77 -129 hhcurveto
          -189 -148 -159 -196 -1 hvcurveto
          -196 1 148 -159 189 hhcurveto
          129 111 76 113 56 hvcurveto
          -585 166 rmoveto
          hintmask 11101100
          173 130 132 159 154 130 -132 -173 1 vhcurveto
          -171 -1 -130 -135 -154 hhcurveto
          -159 -130 135 171 hvcurveto
          endchar
        </CharString>
        <CharString name="Oacute">
          26 callsubr
          0 213 hstemhm
          86 callsubr
          50 hintmask 11011000
          73 355 rmoveto
          196 1 148 159 7 callsubr
          -159 -196 1 -86 callsubr
          -196 -1 -147 -159 6 callsubr
          159 196 -1 -86 callsubr
          49 hmoveto
          -171 130 -135 5 callsubr
          135 171 1 -86 callsubr
          173 -1 -130 132 8 callsubr
          -132 -173 -86 callsubr
          231 437 -90 callsubr
          hintmask 10111000
          -97 callsubr
        </CharString>
        <CharString name="Ocircumflex">
          263 160 200 79 195 endchar
        </CharString>
        <CharString name="Odieresis">
          263 151 200 79 200 endchar
        </CharString>
        <CharString name="Ograve">
          263 179 200 79 193 endchar
        </CharString>
        <CharString name="Oslash">
          263 -12 47 630 47 hstem
          73 54 596 54 vstem
          424 -12 rmoveto
          212 141 171 191 -3 callsubr
          93 -33 88 -59 65 vhcurveto
          69 74 rlineto
          4 4 2 17 callsubr
          12 -9 9 -12 -7 -6 -3 -5 -5 vhcurveto
          -67 -72 rlineto
          51 -59 -78 32 -91 hhcurveto
          -212 -141 -171 -191 hvcurveto
          -2 vlineto
          -93 33 -88 58 -66 vhcurveto
          -68 -73 rlineto
          -4 -4 -2 -6 -6 vvcurveto
          -12 9 -9 12 7 6 3 5 5 vhcurveto
          67 71 rlineto
          -51 59 77 -31 92 hhcurveto
          -297 362 rmoveto
          2 vlineto
          173 124 140 173 77 68 -29 -46 51 vhcurveto
          -419 -450 rlineto
          -47 56 -27 73 81 vvcurveto
          299 -315 rmoveto
          -77 -68 28 47 -52 hvcurveto
          420 449 rlineto
          46 -56 28 -73 -80 vvcurveto
          -2 vlineto
          -173 -124 -140 -173 vhcurveto
          endchar
        </CharString>
        <CharString name="Otilde">
          26 callsubr
          85 -19 callsubr
          86 callsubr
          50 hintmask 11010110
          73 355 rmoveto
          196 1 148 159 7 callsubr
          -159 -196 1 -86 callsubr
          -196 -1 -147 -159 6 callsubr
          159 196 -1 -86 callsubr
          49 hmoveto
          -171 130 -135 5 callsubr
          135 171 1 -86 callsubr
          173 -1 -130 132 8 callsubr
          -132 -173 -86 callsubr
          178 443 -94 callsubr
        </CharString>
        <CharString name="P">
          -4 21 -21 300 48 303 49 hstem
          104 49 324 48 vstem
          104 -58 callsubr
          275 vlineto
          173 2 rlineto
          110 89 89 110 110 -89 90 -110 hvcurveto
          -195 hlineto
          -3 hlineto
          -34 callsubr
          49 -328 rmoveto
          303 173 vlineto
          83 68 -68 -83 -83 -68 -68 -83 -1 hvcurveto
          endchar
        </CharString>
        <CharString name="Q">
          257 -144 49 30 113 611 51 hstem
          66 50 572 50 vstem
          804 -49 rmoveto
          -9 11 -15 1 -11 -8 rrcurveto
          -36 -47 -41 -14 -39 hhcurveto
          -49 -50 21 31 -51 hvcurveto
          -19 11 -22 7 -20 4 101 47 rcurveline
          49 callsubr
          vhcurveto
          121 55 85 126 147 vvcurveto
          195 -149 160 -187 1 vhcurveto
          -187 -1 -149 -160 -195 vvcurveto
          -179 126 -151 166 -23 vhcurveto
          -93 -42 -12 -6 -5 -15 6 -12 rlinecurve
          1 -4 3 -3 3 -4 rrcurveto
          1 0 0 0 49 callsubr
          hvcurveto
          9 -6 9 -1 10 5 rrcurveto
          0 0 0 1 vhcurveto
          6 7 40 16 46 hhcurveto
          26 28 -5 -17 30 hvcurveto
          -31 53 57 -26 64 hhcurveto
          1 0 0 0 hvcurveto
          50 53 17 42 55 hvcurveto
          10 9 1 16 -8 11 rrcurveto
          -688 403 rmoveto
          171 130 134 156 156 130 -134 -171 -170 -130 -136 -156 -156 -130 136 170 vhcurveto
          endchar
        </CharString>
        <CharString name="R">
          38 21 -21 301 48 302 49 hstem
          90 49 313 59 vstem
          471 43 rmoveto
          -22 11 21 -10 13 hhcurveto
          2 hlineto
          6 5 1 1 hhcurveto
          13 5 6 14 -3 13 -4 11 -12 6 -11 -1 -1 1 -5 4 -4 12 rrcurveto
          -5 15 -4 25 41 vvcurveto
          79 -48 51 -46 26 vhcurveto
          -4 2 -3 1 -3 2 rrcurveto
          68 32 47 69 80 vvcurveto
          111 -89 89 -110 vhcurveto
          -195 hlineto
          -3 hlineto
          -2 hlineto
          -12 -1 -10 -11 -12 vvcurveto
          -652 vlineto
          -57 callsubr
          277 170 vlineto
          1 1 -1 -1 3 hvcurveto
          13 -2 37 -11 31 -22 rrcurveto
          31 -23 26 -32 -51 vvcurveto
          -59 7 -33 12 -23 vhcurveto
          -8 457 rmoveto
          -82 -66 -67 -81 -2 vhcurveto
          -9 hlineto
          -168 302 173 hlineto
          83 68 -67 -84 hvcurveto
          endchar
        </CharString>
        <CharString name="S">
          80 -1 45 622 44 hstem
          89 44 414 45 vstem
          75 100 34 callsubr
          58 -46 93 -54 107 -1 -50 callsubr
          70 63 21 34 47 -86 callsubr
          47 34 32 50 56 -31 callsubr
          56 -31 46 -46 30 -89 callsubr
          -46 31 -62 20 -70 13 rrcurveto
          -2 0 hlineto
          -63 12 -52 17 -35 24 -50 callsubr
          -35 24 -16 26 -1 35 -50 callsubr
          36 20 34 35 26 -89 callsubr
          25 35 51 17 57 -42 callsubr
          77 60 -38 -36 55 -86 callsubr
          10 -7 14 3 6 10 -50 callsubr
          7 11 -3 13 -10 7 -50 callsubr
          36 -55 -69 45 -92 -42 callsubr
          -66 -59 -19 -32 -44 -86 callsubr
          -44 -32 -29 -46 -53 -31 callsubr
          -52 29 -42 43 -28 -89 callsubr
          43 -29 57 -18 65 -12 rrcurveto
          2 0 hlineto
          68 -13 56 -19 38 -25 -50 callsubr
          38 -26 19 -30 -40 -31 callsubr
          -39 -21 -37 -39 -28 -89 callsubr
          -28 -38 -55 -18 -61 -42 callsubr
          -91 -1 -87 49 -52 42 -50 callsubr
          -9 8 -14 -1 -8 -10 -50 callsubr
          -7 -9 1 -14 9 -8 rrcurveto
          endchar
        </CharString>
        <CharString name="Scaron">
          53 -1 45 622 44 0 190 hstemhm
          89 44 414 45 hintmask 10111000
          329 829 -52 callsubr
          -317 -787 rmoveto
          -9 8 -1 14 7 9 -50 callsubr
          8 10 14 1 9 -8 -50 callsubr
          52 -42 87 -49 91 1 -50 callsubr
          61 55 18 28 38 -86 callsubr
          39 28 21 37 39 -31 callsubr
          40 -19 30 -38 26 -89 callsubr
          -38 25 -56 19 -68 13 rrcurveto
          0 -2 vlineto
          -65 12 -57 18 -43 29 -50 callsubr
          -43 28 -29 42 52 -31 callsubr
          53 29 46 44 32 -89 callsubr
          32 44 59 19 66 -42 callsubr
          92 69 -45 -36 55 -86 callsubr
          10 -7 3 -13 -7 -11 -50 callsubr
          -6 -10 -14 -3 -10 7 -50 callsubr
          hintmask 11011000
          36 -55 -60 38 -77 -42 callsubr
          -57 -51 -17 -25 -35 -86 callsubr
          -35 -26 -20 -34 -36 -31 callsubr
          1 -35 16 -26 35 -24 -50 callsubr
          35 -24 52 -17 63 -12 rrcurveto
          0 2 vlineto
          70 -13 62 -20 46 -31 -50 callsubr
          46 -30 31 -46 -56 -31 callsubr
          -56 -32 -50 -47 -34 -89 callsubr
          -34 -47 -63 -21 -70 -42 callsubr
          -107 1 -93 54 -58 46 -50 callsubr
          endchar
        </CharString>
        <CharString name="T">
          61 21 -21 651 49 hstem
          285 48 vstem
          285 47 callsubr
          27 callsubr
          vhcurveto
          627 211 vlineto
          56 callsubr
          -470 hlineto
          59 callsubr
          211 -627 hlineto
          endchar
        </CharString>
        <CharString name="Thorn">
          86 -4 185 -48 48 344 48 -48 179 hstemhm
          104 52 410 52 hintmask 10101100
          104 22 rmoveto
          50 callsubr
          14 12 12 14 vhcurveto
          hintmask 01101100
          111 189 vlineto
          146 127 77 147 -3 callsubr
          135 -106 79 -154 vhcurveto
          -202 105 hlineto
          hintmask 10011100
          14 -12 12 -14 -14 -12 -12 -14 vhcurveto
          52 -497 rmoveto
          344 198 vlineto
          126 86 -58 -111 hvcurveto
          -2 vlineto
          -104 -88 -69 -130 vhcurveto
          endchar
        </CharString>
        <CharString name="U">
          227 -14 callsubr
          hstem
          105 49 468 49 vstem
          105 283 34 callsubr
          -156 127 -127 155 -89 callsubr
          157 127 127 156 hvcurveto
          393 vlineto
          0 -67 callsubr
          0 vlineto
          35 callsubr
          0 vlineto
          -129 -105 -104 -130 -1 -89 callsubr
          -128 1 -105 104 129 vvcurveto
          393 vlineto
          0 -67 callsubr
          35 callsubr
          endchar
        </CharString>
        <CharString name="Uacute">
          -84 callsubr
          228 509 -100 callsubr
        </CharString>
        <CharString name="Ucircumflex">
          173 -14 callsubr
          240 28 callsubr
          468 -99 callsubr
          283 580 -101 callsubr
        </CharString>
        <CharString name="Udieresis">
          173 -14 callsubr
          114 86 61 callsubr
          195 79 194 -99 callsubr
          158 554 -106 callsubr
        </CharString>
        <CharString name="Ugrave">
          -84 callsubr
          338 509 -96 callsubr
        </CharString>
        <CharString name="V">
          163 -12 callsubr
          hstemhm
          hintmask 01000000
          346 2 rmoveto
          0 0 -1 1 vhcurveto
          hintmask 10000000
          -1 2 4 0 3 hhcurveto
          3 3 1 1 3 hvcurveto
          1 hlineto
          hintmask 01000000
          8 3 5 8 1 9 271 640 rcurveline
          5 12 -6 15 -12 5 -12 6 -15 -6 -4 -12 -251 -596 rcurveline
          -250 596 -5 12 -15 6 -12 -6 rlinecurve
          -12 -5 -6 -15 5 -12 271 -645 rcurveline
          1 -1 rlineto
          -1 0 -1 1 vhcurveto
          2 -6 4 -4 6 -2 rrcurveto
          endchar
        </CharString>
        <CharString name="W">
          515 29 callsubr
          78 694 rmoveto
          -12 -5 -6 -15 6 -12 270 -642 rcurveline
          1 -5 2 -4 3 -3 1 -1 rcurveline
          2 -2 rlineto
          -3 4 5 -2 6 hhcurveto
          5 5 1 3 4 hvcurveto
          0 36 callsubr
          vhcurveto
          2 2 2 2 1 3 rrcurveto
          36 callsubr
          2 2 vvcurveto
          179 423 178 -423 rlineto
          1 -1 0 -1 -1 vvcurveto
          1 -2 2 -3 1 -1 1 -2 2 90 callsubr
          rrcurveto
          -3 4 4 -1 4 hhcurveto
          3 hlineto
          2 hlineto
          7 1 9 6 4 9 272 646 rcurveline
          6 12 -6 15 -12 5 -14 6 -13 -6 -6 -12 -250 -595 rcurveline
          -177 421 rlineto
          9 -5 -9 6 -11 hhcurveto
          -9 -9 -6 -9 -5 hvcurveto
          -178 -421 -250 595 -5 12 -15 6 -12 -6 rlinecurve
          endchar
        </CharString>
        <CharString name="X">
          135 29 callsubr
          86 5 rmoveto
          -3 5 5 -2 5 hhcurveto
          7 8 4 7 4 hvcurveto
          217 297 217 -297 rlineto
          -7 79 callsubr
          5 4 2 3 5 hvcurveto
          11 8 3 15 -9 11 -226 309 rcurveline
          226 309 9 11 -3 16 -11 7 rlinecurve
          -11 9 -14 -2 -9 -11 -217 -298 rcurveline
          -217 298 33 callsubr
          -9 rlinecurve
          -11 -7 -2 -16 9 -11 225 -309 rcurveline
          -225 -309 -9 -11 2 -15 11 -8 rlinecurve
          endchar
        </CharString>
        <CharString name="Y">
          17 29 callsubr
          296 48 vstem
          296 -16 callsubr
          314 vlineto
          234 319 -35 callsubr
          235 -321 rcurveline
          -312 vlineto
          endchar
        </CharString>
        <CharString name="Yacute">
          129 21 -21 923 -20 hstem
          296 48 -56 callsubr
          -31 768 -100 callsubr
        </CharString>
        <CharString name="Ydieresis">
          129 21 -21 794 86 hstem
          195 86 79 86 -56 callsubr
          -101 813 -106 callsubr
        </CharString>
        <CharString name="Z">
          80 0 49 -27 -21 647 48 hstemhm
          hintmask 01100000
          83 5 rmoveto
          2 -2 2 -1 2 -1 rrcurveto
          hintmask 10100000
          2 3 -1 2 hhcurveto
          2 hlineto
          473 hlineto
          27 callsubr
          15 -11 10 -13 hvcurveto
          -426 hlineto
          445 608 7 9 0 13 -7 8 rlinecurve
          -2 2 -3 2 -2 1 -6 4 -7 2 -7 -2 rrcurveto
          -465 hlineto
          4 callsubr
          424 hlineto
          -441 -606 -2 -2 -2 -3 -2 -4 rlinecurve
          -4 -10 3 -12 9 -6 rrcurveto
          endchar
        </CharString>
        <CharString name="a">
          32 -43 callsubr
          hstem
          40 9 callsubr
          vstem
          480 -107 callsubr
          endchar
        </CharString>
        <CharString name="aacute">
          -13 -43 callsubr
          211 -20 hstem
          63 9 callsubr
          vstem
          -103 callsubr
          -55 522 -100 callsubr
        </CharString>
        <CharString name="acircumflex">
          -13 -43 callsubr
          0 80 128 -20 hstemhm
          63 9 callsubr
          hintmask 11011100
          -103 callsubr
          -1 593 -54 callsubr
        </CharString>
        <CharString name="acute">
          70 callsubr
          214 592 -100 callsubr
        </CharString>
        <CharString name="adieresis">
          -13 -43 callsubr
          80 86 hstem
          63 48 60 86 79 86 57 48 vstem
          -103 callsubr
          -124 565 -106 callsubr
        </CharString>
        <CharString name="ae">
          367 0 48 188 49 158 47 2 -20 hstemhm
          51 48 368 54 hintmask 11011100
          712 492 rmoveto
          -82 -72 -43 -64 -43 hvcurveto
          81 vlineto
          hintmask 11101100
          14 -11 10 -13 -13 -11 -10 -14 vhcurveto
          -98 callsubr
          83 vlineto
          -64 43 72 -43 82 hhcurveto
          -41 callsubr
          3 vlineto
          1 vlineto
          hintmask 11011100
          67 callsubr
          -429 -444 rmoveto
          -100 -84 87 110 hvcurveto
          hintmask 11101100
          -75 callsubr
          vhcurveto
          241 237 rmoveto
          92 18 77 67 93 hhcurveto
          55 callsubr
          endchar
        </CharString>
        <CharString name="agrave">
          -13 -43 callsubr
          211 -20 hstem
          63 9 callsubr
          vstem
          -103 callsubr
          56 522 -96 callsubr
        </CharString>
        <CharString name="ampersand">
          109 0 49 223 49 186 193 -49 49 hstemhm
          49 49 6 49 89 49 102 49 16 49 hintmask 1101111110000000
          49 229 rmoveto
          -126 103 -103 126 126 103 103 126 16 -2 16 -3 15 vhcurveto
          10 4 9 5 10 7 21 15 15 27 -2 33 rrcurveto
          11 -1 12 -2 14 vhcurveto
          -4 12 -12 9 -14 -3 -13 -3 -9 -13 4 -13 rrcurveto
          2 -10 0 -9 -7 vvcurveto
          -21 -6 -8 -8 -8 vhcurveto
          -7 -5 -10 -4 -11 -2 rrcurveto
          -7 hlineto
          -3 hlineto
          -6 hlineto
          2 -11 -13 0 -11 hhcurveto
          -72 -46 -18 -28 -28 hvcurveto
          -29 -27 -6 -34 -24 vvcurveto
          -20 4 -15 1 -1 vhcurveto
          -11 3 9 -6 12 hhcurveto
          2 2 0 1 3 hvcurveto
          12 4 7 13 -3 14 rrcurveto
          -1 4 -2 7 10 vvcurveto
          16 4 19 16 16 vhcurveto
          16 16 32 15 64 hhcurveto
          9 10 0 -2 11 hvcurveto
          3 -13 2 -14 -14 vvcurveto
          -99 -81 -81 -99 -99 -81 81 99 70 39 59 58 31 vhcurveto
          3 1 2 1 3 2 4 3 4 4 1 5 5 10 -4 12 -9 7 rrcurveto
          -30 21 -21 36 40 vvcurveto
          67 54 53 66 66 54 -53 -67 vhcurveto
          hintmask 1110111110000000
          -55 callsubr
          94 -76 75 -93 -93 -76 -75 -94 -43 16 -40 28 -30 vhcurveto
          -60 -42 -39 -70 -77 vvcurveto
          endchar
        </CharString>
        <CharString name="aring">
          -13 -43 callsubr
          70 41 96 39 hstem
          51 48 95 43 95 43 92 48 vstem
          491 -107 callsubr
          512 vmoveto
          49 43 41 46 hvcurveto
          19 callsubr
          -46 43 -41 46 vhcurveto
          41 vmoveto
          -25 -21 23 23 hvcurveto
          21 callsubr
          -23 -20 -23 -29 vhcurveto
          endchar
        </CharString>
        <CharString name="asciicircum">
          -87 510 -21 218 -20 hstem
          249 660 rmoveto
          120 -157 rlineto
          -11 8 12 -3 16 hhcurveto
          10 5 6 5 4 -1 3 -4 6 hvcurveto
          -133 176 -85 callsubr
          -133 -176 rlineto
          -4 -6 -1 -3 -4 vvcurveto
          -5 5 -6 9 15 12 3 11 8 vhcurveto
          endchar
        </CharString>
        <CharString name="asciitilde">
          -127 251 37 callsubr
          121 254 -64 callsubr
        </CharString>
        <CharString name="asterisk">
          -157 423 -21 304 -20 hstemhm
          76 155 -32 32 -32 155 hintmask 11010000
          195 424 rmoveto
          -12 -1 9 -10 12 hhcurveto
          12 9 10 12 -1 hvcurveto
          -8 109 91 -62 rlineto
          -4 6 4 -2 6 hhcurveto
          hintmask 11001000
          11 9 10 11 11 -7 5 -7 3 hvcurveto
          -103 49 103 49 rlineto
          7 3 7 5 11 vvcurveto
          11 -9 10 -11 -6 -4 -2 -4 -6 vhcurveto
          -91 -62 8 109 rlineto
          12 1 -9 10 -12 hhcurveto
          -12 -9 -10 -12 1 hvcurveto
          8 -109 -91 62 rlineto
          4 -6 -3 2 -7 hhcurveto
          hintmask 11100000
          -11 -1 -9 -9 -11 vvcurveto
          -9 6 -6 8 -4 vhcurveto
          103 -49 -103 -49 rlineto
          -7 -3 -7 -7 -9 vvcurveto
          -11 9 -10 11 6 4 2 4 6 vhcurveto
          91 62 rlineto
          endchar
        </CharString>
        <CharString name="at">
          393 0 49 113 52 275 49 114 49 hstem
          53 49 123 52 255 49 124 49 vstem
          53 351 rmoveto
          -195 156 -156 195 30 29 4 7 27 vhcurveto
          13 2 9 14 -5 13 -1 14 -14 6 -13 -3 rrcurveto
          -7 -25 -24 -1 -26 hhcurveto
          -166 -136 66 callsubr
          66 callsubr
          -136 -165 -50 -11 -47 -22 -40 hvcurveto
          -4 -10 -24 -35 -30 -7 rrcurveto
          -8 hlineto
          -10 -5 3 4 -3 hvcurveto
          -3 6 -4 10 1 6 rrcurveto
          -1 147 hlineto
          5 vlineto
          8 vlineto
          102 -78 85 -99 -99 -80 -85 -102 -103 80 -86 99 52 44 23 37 33 vhcurveto
          -34 vlineto
          -17 6 -16 10 -15 vhcurveto
          -15 11 19 -12 27 hhcurveto
          6 7 0 2 7 hvcurveto
          59 17 29 56 3 3 rrcurveto
          24 47 13 54 59 vvcurveto
          194 -156 156 -194 -195 -156 -156 -194 vhcurveto
          224 hmoveto
          76 57 62 70 69 59 -62 -76 -77 -59 -60 -69 -70 -57 60 77 vhcurveto
          endchar
        </CharString>
        <CharString name="atilde">
          -13 -43 callsubr
          91 -19 callsubr
          63 9 callsubr
          hintmask 11010110
          -103 callsubr
          -109 536 -94 callsubr
        </CharString>
        <CharString name="b">
          73 0 49 392 49 210 28 callsubr
          376 49 vstem
          93 -58 callsubr
          71 vlineto
          -58 43 68 -37 77 hhcurveto
          132 105 110 134 136 -105 110 -132 -77 -68 -38 -58 -43 hvcurveto
          282 -44 callsubr
          -422 72 callsubr
          105 4 83 84 101 hhcurveto
          104 84 -88 -109 73 callsubr
          -103 -85 87 108 hvcurveto
          endchar
        </CharString>
        <CharString name="backslash">
          -139 23 -21 hstem
          372 3 rmoveto
          12 6 6 14 -5 13 -50 callsubr
          -273 648 -6 12 -13 6 -13 -5 rlinecurve
          0 vlineto
          -13 -5 -6 -14 6 -13 -50 callsubr
          273 -648 rlineto
          -10 4 9 -5 9 -42 callsubr
          4 3 0 1 3 -86 callsubr
          endchar
        </CharString>
        <CharString name="bar">
          -301 -111 -21 934 -20 hstem
          121 44 vstem
          121 -110 rmoveto
          -12 10 -10 12 12 10 10 12 vhcurveto
          890 vlineto
          12 -10 10 -12 -12 -10 -10 -12 vhcurveto
          endchar
        </CharString>
        <CharString name="braceleft">
          -107 268 38 hstem
          205 49 vstem
          406 -139 rmoveto
          11 -2 10 6 12 vvcurveto
          8 -6 6 -6 2 vhcurveto
          -145 38 -16 38 99 vvcurveto
          75 vlineto
          89 -37 33 -67 22 vhcurveto
          63 19 41 36 89 vvcurveto
          75 vlineto
          99 16 38 145 38 vhcurveto
          6 2 6 6 8 vvcurveto
          12 -10 6 -11 -2 vhcurveto
          -169 -34 -32 -64 -103 vvcurveto
          -79 vlineto
          -78 -23 -49 -103 -16 -8 -8 -11 -11 8 -8 16 103 23 -49 -78 vhcurveto
          -79 vlineto
          -103 32 -64 169 -34 vhcurveto
          endchar
        </CharString>
        <CharString name="braceright">
          -107 268 38 hstem
          226 49 vstem
          74 713 rmoveto
          -11 2 -10 -6 -12 vvcurveto
          -8 6 -6 6 -2 vhcurveto
          145 -38 16 -38 -99 vvcurveto
          -75 vlineto
          -89 37 -33 67 -22 vhcurveto
          -63 -19 -41 -36 -89 vvcurveto
          -75 vlineto
          -99 -16 -38 -145 -38 vhcurveto
          -6 -2 -6 -6 -8 vvcurveto
          -12 10 -6 11 2 vhcurveto
          169 34 32 64 103 vvcurveto
          79 vlineto
          78 23 49 103 16 8 8 11 11 -8 8 -16 -103 -23 49 78 vhcurveto
          79 vlineto
          103 -32 64 -169 34 vhcurveto
          endchar
        </CharString>
        <CharString name="bracketleft">
          57 callsubr
          98 46 vstem
          98 -104 rmoveto
          50 callsubr
          vhcurveto
          232 42 callsubr
          -212 754 212 42 callsubr
          -232 hlineto
          -14 -12 -12 -14 hvcurveto
          endchar
        </CharString>
        <CharString name="bracketright">
          57 callsubr
          286 46 vstem
          332 674 rmoveto
          14 -12 12 -14 vhcurveto
          -232 43 callsubr
          212 -754 -212 43 callsubr
          232 hlineto
          14 12 12 14 hvcurveto
          endchar
        </CharString>
        <CharString name="bullet">
          -117 228 248 hstem
          111 248 vstem
          235 228 rmoveto
          68 56 55 68 -3 callsubr
          68 -60 55 -64 -65 -59 -55 -68 18 callsubr
          -68 56 -55 68 vhcurveto
          endchar
        </CharString>
        <CharString name="c">
          -16 -43 callsubr
          hstem
          58 48 vstem
          -87 callsubr
          endchar
        </CharString>
        <CharString name="ccedilla">
          -16 -142 190 -48 48 395 47 hstemhm
          58 48 hintmask 01110000
          -87 callsubr
          38 11 callsubr
          hintmask 10110000
          23 callsubr
        </CharString>
        <CharString name="cedilla">
          -87 -121 -21 152 -20 hstem
          295 11 callsubr
          23 callsubr
        </CharString>
        <CharString name="cent">
          -6 11 -21 98 46 442 46 88 -20 hstem
          62 53 vstem
          219 21 rmoveto
          -18 -4 12 -13 16 hhcurveto
          13 9 10 10 2 hvcurveto
          16 80 rlineto
          -2 13 13 0 13 hhcurveto
          88 60 37 52 49 hvcurveto
          4 4 3 5 7 vvcurveto
          12 -10 11 -12 -8 -6 -4 -5 -5 vhcurveto
          -44 -44 -52 -29 -64 hhcurveto
          -12 -12 1 2 -12 hvcurveto
          84 432 43 -11 34 -26 30 -29 rlinecurve
          -5 5 5 -3 9 hhcurveto
          14 10 11 14 8 -3 6 -6 6 hvcurveto
          -34 32 -40 30 -55 13 13 64 rcurveline
          18 4 -12 13 -16 hhcurveto
          -13 -9 -10 -10 -2 hvcurveto
          -13 -68 rlineto
          -15 hlineto
          -146 -114 -124 -143 hvcurveto
          -2 vlineto
          -114 71 -100 103 -36 vhcurveto
          -121 252 rmoveto
          2 vlineto
          122 90 97 116 vhcurveto
          9 hlineto
          -82 -427 rlineto
          -78 32 -55 80 94 vvcurveto
          endchar
        </CharString>
        <CharString name="circumflex">
          -87 613 -21 128 -20 hstem
          249 663 -101 callsubr
        </CharString>
        <CharString name="colon">
          -347 0 100 320 100 hstem
          87 100 vstem
          87 50 -9 callsubr
          420 vmoveto
          -73 callsubr
          endchar
        </CharString>
        <CharString name="comma">
          -84 77 callsubr
          82 66 vstem
          54 -90 rmoveto
          -10 8 -5 7 9 25 14 18 18 vhcurveto
          -40 callsubr
          endchar
        </CharString>
        <CharString name="copyright">
          243 -12 28 150 40 299 40 139 28 hstem
          53 30 154 44 466 30 vstem
          414 -12 rmoveto
          203 160 165 197 -3 callsubr
          197 -158 163 -203 -203 -160 -165 -197 18 callsubr
          -197 158 -163 203 vhcurveto
          28 vmoveto
          -189 -142 149 183 -3 callsubr
          183 143 151 190 189 142 -149 -183 18 callsubr
          -183 -143 -151 -190 vhcurveto
          5 150 rmoveto
          60 37 22 32 37 hvcurveto
          4 3 3 17 callsubr
          11 -9 9 -11 -6 -5 -3 -2 -3 vhcurveto
          -28 -31 -30 -16 -45 hhcurveto
          -77 -62 68 81 -3 callsubr
          81 59 67 79 42 32 -19 -23 27 vhcurveto
          -4 5 5 -3 6 hhcurveto
          12 10 9 12 7 -4 7 -5 4 hvcurveto
          28 -32 -38 22 -59 hhcurveto
          -103 -80 -87 -102 hvcurveto
          -2 vlineto
          -103 79 -85 103 vhcurveto
          endchar
        </CharString>
        <CharString name="d">
          73 0 49 392 49 210 -20 hstem
          60 49 376 49 vstem
          485 24 rmoveto
          -13 11 -1 callsubr
          220 vlineto
          10 vlineto
          422 vlineto
          -11 callsubr
          -14 -11 -11 -13 vhcurveto
          -282 vlineto
          58 -43 -68 38 -77 hhcurveto
          -132 -105 -110 -136 -134 105 -110 132 77 68 37 58 43 hvcurveto
          -188 -46 rmoveto
          -103 -85 87 108 109 85 88 103 101 83 -84 -105 4 hvcurveto
          -16 vlineto
          -104 -4 -83 -83 -101 hhcurveto
          endchar
        </CharString>
        <CharString name="dagger">
          -177 255 -21 287 37 -37 183 hstemhm
          185 39 hintmask 11010000
          183 257 rmoveto
          -14 10 -9 12 12 10 9 14 vhcurveto
          -5 267 -18 callsubr
          hintmask 10110000
          -8 callsubr
          10 callsubr
          rlineto
          endchar
        </CharString>
        <CharString name="daggerdbl">
          -157 -4 183 -37 37 342 37 -37 183 hstemhm
          69 165 -40 40 -40 167 hintmask 01100100
          191 22 rmoveto
          hintmask 10100100
          -15 -1 10 -11 15 hhcurveto
          15 10 11 15 -1 hvcurveto
          -6 123 105 -6 rlineto
          hintmask 01100010
          12 -1 11 11 12 vvcurveto
          12 -11 10 -12 -1 vhcurveto
          -106 -6 5 174 -5 174 -18 callsubr
          hintmask 01010100
          -8 callsubr
          hintmask 01101000
          10 callsubr
          -5 -174 5 -174 -106 6 rlineto
          -12 1 -11 -10 -12 vvcurveto
          -12 11 -11 12 1 vhcurveto
          105 6 rlineto
          endchar
        </CharString>
        <CharString name="degree">
          -137 412 44 206 44 hstem
          74 50 202 50 vstem
          225 412 rmoveto
          79 72 68 78 -3 callsubr
          78 -72 68 -79 -79 -72 -68 -78 18 callsubr
          -78 72 -68 79 vhcurveto
          44 vmoveto
          -58 -43 49 53 -3 callsubr
          53 43 49 58 58 43 -49 -53 18 callsubr
          -53 -43 -49 -58 vhcurveto
          endchar
        </CharString>
        <CharString name="dieresis">
          -87 594 86 hstem
          133 86 79 86 vstem
          133 637 -106 callsubr
        </CharString>
        <CharString name="divide">
          33 111 97 -97 217 48 217 -97 97 hstemhm
          hintmask 01100000
          88 328 rmoveto
          -13 -11 11 13 27 callsubr
          hvcurveto
          444 hlineto
          13 11 -11 -13 -34 callsubr
          -222 265 rmoveto
          -22 -18 -18 -22 hvcurveto
          -17 vlineto
          hintmask 10010000
          2 callsubr
          -385 vmoveto
          -22 -18 -18 -22 hvcurveto
          -17 vlineto
          2 callsubr
          endchar
        </CharString>
        <CharString name="dollar">
          45 -102 147 -45 45 610 45 -45 107 hstemhm
          87 51 161 44 165 51 hintmask 10101110
          297 738 rmoveto
          -38 vlineto
          -122 -3 -88 -77 -101 vvcurveto
          -100 62 -55 150 -33 vhcurveto
          -285 vlineto
          -78 8 -61 31 -56 52 rrcurveto
          3 -3 -6 4 -9 hhcurveto
          -13 -12 -12 -13 -9 4 -6 7 -6 hvcurveto
          67 -58 71 -32 87 -7 rrcurveto
          -79 -65 callsubr
          hintmask 01011110
          78 vlineto
          125 4 89 75 106 vvcurveto
          98 -64 57 -152 32 vhcurveto
          280 vlineto
          53 -6 48 -20 49 -39 rrcurveto
          -6 7 5 -1 6 hhcurveto
          14 12 11 14 10 -5 6 -9 7 hvcurveto
          -54 40 -52 24 -72 6 rrcurveto
          40 vlineto
          -11 callsubr
          -32 callsubr
          -13 vhcurveto
          211 -557 rmoveto
          -76 -65 -58 -100 -2 vhcurveto
          276 vlineto
          130 -29 35 -42 -69 vvcurveto
          -370 342 rmoveto
          72 64 58 97 2 vhcurveto
          -273 vlineto
          -129 31 -32 42 68 vvcurveto
          endchar
        </CharString>
        <CharString name="e">
          22 0 48 188 47 159 48 hstem
          58 48 vstem
          296 hmoveto
          83 73 44 67 42 hvcurveto
          7 12 -4 14 -11 8 -10 6 -15 -2 -7 -12 rrcurveto
          -55 -33 -60 -34 -65 hhcurveto
          -101 -84 81 107 -5 hvcurveto
          402 hlineto
          13 11 9 13 hvcurveto
          3 vlineto
          1 vlineto
          128 -10 -100 100 -126 hhcurveto
          -132 -106 -110 -136 -134 106 -110 132 hvcurveto
          442 vmoveto
          90 78 -67 -92 16 hvcurveto
          -371 hlineto
          93 18 77 66 92 hhcurveto
          endchar
        </CharString>
        <CharString name="eacute">
          22 22 callsubr
          0 211 hstemhm
          58 48 hintmask 01101010
          296 hmoveto
          -132 -106 110 134 136 106 110 132 126 100 -100 -128 10 hvcurveto
          -1 vlineto
          -3 vlineto
          -13 -11 -9 -13 vhcurveto
          -402 hlineto
          -107 5 84 -81 101 hhcurveto
          65 60 34 55 33 hvcurveto
          7 12 15 2 10 -6 11 -8 4 -14 -7 -12 rrcurveto
          hintmask 10010110
          -22 callsubr
          -56 128 -100 callsubr
        </CharString>
        <CharString name="ecircumflex">
          22 46 -22 101 195 endchar
        </CharString>
        <CharString name="edieresis">
          -3 22 callsubr
          80 86 hstemhm
          61 48 150 79 hintmask 01101111
          299 hmoveto
          -132 -106 110 134 136 106 110 132 126 100 -100 -128 10 hvcurveto
          -1 vlineto
          -3 vlineto
          -13 -11 -9 -13 vhcurveto
          -402 hlineto
          -107 5 84 -81 101 hhcurveto
          65 60 34 55 33 hvcurveto
          7 12 15 2 10 -6 11 -8 4 -14 -7 -12 rrcurveto
          hintmask 10010111
          -22 callsubr
          -126 171 -106 callsubr
        </CharString>
        <CharString name="egrave">
          22 64 -22 101 193 endchar
        </CharString>
        <CharString name="eight">
          43 0 48 358 50 196 48 hstem
          55 48 34 48 195 48 33 48 vstem
          137 555 rmoveto
          -49 23 -42 35 -27 vhcurveto
          -82 -34 -58 -82 -94 vvcurveto
          -126 102 -101 125 126 101 101 126 94 -58 82 -83 34 vhcurveto
          36 27 24 42 49 vvcurveto
          80 -66 65 -80 -81 -64 -65 -80 vhcurveto
          -34 -328 rmoveto
          98 80 81 99 100 79 -81 -98 -99 -79 -80 -100 -99 -80 80 99 vhcurveto
          82 328 rmoveto
          54 43 43 54 54 44 -43 -54 -54 -44 -44 -54 -1 vhcurveto
          -54 1 -43 44 54 vvcurveto
          endchar
        </CharString>
        <CharString name="ellipsis">
          93 0 100 hstem
          82 100 127 100 127 100 cntrmask 01110000
          82 50 -9 callsubr
          227 hmoveto
          -73 callsubr
          227 hmoveto
          -73 callsubr
          endchar
        </CharString>
        <CharString name="emdash">
          311 65 callsubr
          714 41 callsubr
          -714 24 callsubr
        </CharString>
        <CharString name="endash">
          -59 65 callsubr
          344 41 callsubr
          -344 24 callsubr
        </CharString>
        <CharString name="equal">
          33 214 55 161 55 hstem
          107 214 rmoveto
          69 callsubr
          16 -86 callsubr
          14 -12 13 68 callsubr
          -13 -14 -86 callsubr
          -16 12 -12 16 vhcurveto
          216 vmoveto
          69 callsubr
          15 -86 callsubr
          16 -12 12 68 callsubr
          -12 -16 -86 callsubr
          -15 12 -12 16 vhcurveto
          endchar
        </CharString>
        <CharString name="eth">
          41 -12 46 408 44 250 -20 hstem
          58 53 404 53 vstem
          475 423 rmoveto
          34 -44 -52 29 -81 hhcurveto
          -126 -114 -97 -145 -138 107 -118 144 157 102 122 138 97 -34 69 -53 78 hvcurveto
          -108 161 81 40 rlineto
          8 4 6 6 10 vvcurveto
          12 -10 11 -12 -3 -5 -1 -2 -4 vhcurveto
          -86 -44 -21 32 rlineto
          7 -5 -7 6 -11 hhcurveto
          -14 -11 -11 -13 -7 3 -7 3 -4 hvcurveto
          18 -26 -117 -57 rlineto
          -8 -4 -6 -6 -10 vvcurveto
          -12 10 -11 12 3 5 1 2 4 vhcurveto
          122 62 rlineto
          187 -388 rmoveto
          -111 -81 -98 -120 -118 -85 100 107 113 74 88 119 119 92 -90 -109 vhcurveto
          endchar
        </CharString>
        <CharString name="exclam">
          -335 -5 callsubr
          174 34 callsubr
          -14 11 -11 -76 callsubr
          11 14 hvcurveto
          502 vlineto
          0 -67 callsubr
          -652 vmoveto
          0 -53 callsubr
          24 vlineto
          0 -67 callsubr
          endchar
        </CharString>
        <CharString name="exclamdown">
          -335 -5 callsubr
          526 rmoveto
          -502 -53 callsubr
          0 vlineto
          502 vlineto
          14 -11 11 -61 callsubr
          -11 -14 -86 callsubr
          150 vmoveto
          -24 -53 callsubr
          0 vlineto
          24 -67 callsubr
          0 vlineto
          endchar
        </CharString>
        <CharString name="f">
          -225 20 -21 450 49 152 49 hstemhm
          65 138 -49 49 hintmask 11101000
          285 699 rmoveto
          -39 -36 -9 -26 -24 hvcurveto
          -23 -27 -8 -37 -1 -50 rrcurveto
          -52 -65 vlineto
          hintmask 11110000
          59 callsubr
          hintmask 11101000
          65 -426 hlineto
          -13 11 -1 callsubr
          426 69 vlineto
          51 callsubr
          14 13 -11 11 -14 hvcurveto
          -69 52 hlineto
          45 9 24 11 12 vhcurveto
          12 10 18 7 34 hhcurveto
          27 callsubr
          82 callsubr
          hvcurveto
          endchar
        </CharString>
        <CharString name="five">
          18 0 50 374 50 176 50 hstem
          425 50 vstem
          238 hmoveto
          60 62 24 45 46 hvcurveto
          47 46 22 62 60 vvcurveto
          62 -22 60 -47 46 vhcurveto
          47 -46 -60 22 -61 hhcurveto
          -42 -41 -11 -21 -36 hvcurveto
          25 208 rlineto
          305 hlineto
          87 callsubr
          15 75 callsubr
          -326 hlineto
          -6 -6 -2 -4 -4 hvcurveto
          -6 -4 -4 -6 -8 vvcurveto
          -34 -282 rlineto
          -2 -1 -2 -1 vvcurveto
          -3 0 -3 1 -2 vhcurveto
          -1 32 callsubr
          -1 vlineto
          1 -3 2 -3 3 -2 9 -10 16 0 10 10 rrcurveto
          37 37 47 18 49 hhcurveto
          48 48 -18 -36 36 hvcurveto
          36 -36 18 -48 -49 vvcurveto
          -48 -18 -47 -37 -37 vhcurveto
          -37 -37 -47 20 callsubr
          -10 -10 -10 -9 0 -16 10 -10 rrcurveto
          -46 46 61 -23 61 hhcurveto
          endchar
        </CharString>
        <CharString name="florin">
          -81 -5 44 345 45 232 44 hstem
          94 -5 rmoveto
          70 42 40 83 16 hvcurveto
          50 266 rlineto
          144 hlineto
          12 11 10 12 12 -11 11 -12 hvcurveto
          -136 hlineto
          25 133 rlineto
          71 13 27 28 55 26 19 -6 7 hhcurveto
          12 10 9 12 12 -7 8 -13 3 hvcurveto
          5 -20 -16 1 -23 hhcurveto
          -80 -44 -41 -99 -19 hvcurveto
          -26 -136 rlineto
          -98 hlineto
          -12 -11 -10 -13 -12 11 -10 12 hvcurveto
          90 hlineto
          -49 -263 rlineto
          -56 -10 -29 -26 -43 hhcurveto
          -19 -12 -7 -15 -13 12 -9 26 hvcurveto
          endchar
        </CharString>
        <CharString name="four">
          77 0 192 -48 48 hstemhm
          456 49 -49 121 hintmask 10100000
          456 -58 callsubr
          hintmask 01100000
          120 47 vlineto
          hintmask 10010000
          -13 callsubr
          13 -11 11 -14 hvcurveto
          hintmask 01100000
          -47 480 hlineto
          3 vlineto
          1 -1 1 2 vvcurveto
          -2 4 -2 5 -4 3 -11 9 -14 -1 -9 -11 -1 -1 rcurveline
          -405 -504 -9 -10 1 -16 11 -8 rlinecurve
          -4 4 6 -1 5 hhcurveto
          2 hlineto
          1 hlineto
          379 hlineto
          -331 48 rmoveto
          331 410 rlineto
          -410 vlineto
          endchar
        </CharString>
        <CharString name="g">
          73 -191 48 146 47 392 48 hstem
          60 48 365 48 vstem
          521 466 rmoveto
          13 -11 11 -12 -14 -11 -11 -13 -89 callsubr
          -72 vlineto
          58 -41 -67 38 -75 hhcurveto
          -128 -102 -111 -132 -135 102 -109 128 75 67 37 59 41 hvcurveto
          -60 vlineto
          -101 -81 -81 -102 -30 -25 6 12 -25 vhcurveto
          -12 7 -14 -5 -6 -13 -6 -11 6 -14 10 -7 rrcurveto
          -14 32 34 -9 36 hhcurveto
          128 103 103 127 hvcurveto
          427 vlineto
          -231 -416 rmoveto
          -100 -82 87 110 109 82 86 100 101 82 -86 -109 -110 -82 -87 -101 hvcurveto
          endchar
        </CharString>
        <CharString name="germandbls">
          33 -2 44 -25 -21 695 46 hstemhm
          93 49 317 53 -8 53 hintmask 10110100
          285 20 rmoveto
          -12 10 -10 11 vhcurveto
          144 5 107 63 123 vvcurveto
          2 vlineto
          107 -97 54 -105 18 vhcurveto
          hintmask 01111000
          78 28 79 64 98 vvcurveto
          2 vlineto
          98 -79 77 -120 -135 -85 -98 -139 vhcurveto
          -480 vlineto
          -14 10 -10 14 87 callsubr
          14 vhcurveto
          480 vlineto
          117 71 74 97 88 61 -55 -76 18 callsubr
          -88 -68 -52 -86 -30 vhcurveto
          -11 -4 -9 -8 -13 vvcurveto
          -14 10 -8 15 -2 vhcurveto
          hintmask 10110100
          107 -14 87 -45 -91 vvcurveto
          -2 vlineto
          -95 -84 -44 -114 -6 vhcurveto
          -11 -1 -10 -9 -12 vvcurveto
          endchar
        </CharString>
        <CharString name="grave">
          70 callsubr
          286 592 -96 callsubr
        </CharString>
        <CharString name="greater">
          33 29 callsubr
          99 9 rmoveto
          -6 6 7 -3 8 hhcurveto
          7 8 3 6 5 hvcurveto
          316 318 1 1 rlineto
          36 callsubr
          0 1 vvcurveto
          4 5 2 7 6 vvcurveto
          7 -3 8 -5 5 vhcurveto
          -1 1 -316 320 -11 10 -19 1 -11 -11 rlinecurve
          -10 -12 0 -18 10 -12 298 -299 rcurveline
          -298 -300 -10 -11 0 -17 10 -11 rlinecurve
          endchar
        </CharString>
        <CharString name="guillemotleft">
          -72 12 callsubr
          425 43 rmoveto
          12 9 9 12 1 hvcurveto
          7 -2 4 -4 6 vhcurveto
          -80 callsubr
          5 -4 9 hhcurveto
          -204 hmoveto
          -59 callsubr
        </CharString>
        <CharString name="guillemotright">
          -72 12 callsubr
          294 467 rmoveto
          -12 -10 -9 -12 -6 2 -6 4 -5 hvcurveto
          126 -175 -70 callsubr
          -6 4 -8 hhcurveto
          -204 hmoveto
          -60 callsubr
        </CharString>
        <CharString name="guilsinglleft">
          -276 12 callsubr
          221 43 rmoveto
          -59 callsubr
        </CharString>
        <CharString name="guilsinglright">
          -276 12 callsubr
          90 467 rmoveto
          -60 callsubr
        </CharString>
        <CharString name="h">
          80 callsubr
          49 210 28 callsubr
          311 49 vstem
          453 -58 callsubr
          273 vlineto
          113 -92 80 -113 -62 -56 -28 -44 -37 vhcurveto
          258 -44 callsubr
          -371 vlineto
          -8 vlineto
          -273 vlineto
          -3 0 -2 1 -3 vhcurveto
          1 -3 1 -2 2 -3 rrcurveto
          -5 5 7 -3 7 hhcurveto
          3 hlineto
          2 hlineto
          36 callsubr
          0 hvcurveto
          7 2 5 4 3 6 1 83 callsubr
          2 rrcurveto
          36 callsubr
          2 vvcurveto
          3 vlineto
          273 vlineto
          86 70 58 85 86 70 -58 -86 vhcurveto
          -273 vlineto
          endchar
        </CharString>
        <CharString name="hyphen">
          -179 328 38 hstem
          85 328 rmoveto
          0 213 0 vlineto
          10 9 8 12 -86 callsubr
          11 -9 7 -10 vhcurveto
          -213 0 hlineto
          -11 -8 -7 -11 -86 callsubr
          -12 8 -8 11 vhcurveto
          endchar
        </CharString>
        <CharString name="i">
          48 callsubr
          650 -20 hstem
          94 49 84 callsubr
          0 -53 callsubr
          442 vlineto
          0 -4 callsubr
          -61 callsubr
          -10 -14 hvcurveto
          137 vmoveto
          0 vlineto
          -14 11 -12 -76 callsubr
          12 14 hvcurveto
          23 vlineto
          0 -67 callsubr
          endchar
        </CharString>
        <CharString name="iacute">
          -46 callsubr
          -31 546 -100 callsubr
        </CharString>
        <CharString name="icircumflex">
          48 callsubr
          698 -68 callsubr
          23 617 -101 callsubr
        </CharString>
        <CharString name="idieresis">
          48 callsubr
          570 86 hstem
          -6 86 79 86 84 callsubr
          442 vlineto
          87 callsubr
          -76 callsubr
          -33 callsubr
          -442 -74 callsubr
          -100 589 -106 callsubr
        </CharString>
        <CharString name="igrave">
          -46 callsubr
          79 546 -96 callsubr
        </CharString>
        <CharString name="j">
          -338 -170 -21 841 -20 hstem
          55 49 vstem
          57 603 34 callsubr
          -13 13 -12 12 -89 callsubr
          13 11 12 13 hvcurveto
          23 39 callsubr
          -12 -13 -11 -13 hvcurveto
          -62 -794 34 callsubr
          -13 10 -10 14 -89 callsubr
          48 37 37 48 hvcurveto
          571 vlineto
          0 vlineto
          82 callsubr
          -89 callsubr
          -13 -12 -11 -14 hvcurveto
          -571 vlineto
          0 vlineto
          -20 -17 -17 -19 -89 callsubr
          -14 -10 -11 -14 hvcurveto
          endchar
        </CharString>
        <CharString name="k">
          -27 -5 callsubr
          -58 callsubr
          112 vlineto
          100 100 188 -227 rlineto
          -7 4 8 -2 7 hhcurveto
          5 6 1 4 5 hvcurveto
          10 10 1 14 -9 11 -190 231 rcurveline
          189 189 10 10 0 15 -10 9 rlinecurve
          -10 10 -14 0 -10 -10 -290 -289 rcurveline
          471 -44 callsubr
          -652 vlineto
          endchar
        </CharString>
        <CharString name="l">
          -338 -26 callsubr
          hstem
          100 49 vstem
          100 -39 callsubr
        </CharString>
        <CharString name="less">
          33 29 callsubr
          386 9 rmoveto
          -6 6 7 -3 7 hhcurveto
          8 8 3 6 5 hvcurveto
          10 11 0 17 -10 11 -298 300 rcurveline
          298 299 10 12 0 18 -10 12 rlinecurve
          -11 11 -19 -1 -11 -10 -316 -320 rcurveline
          -1 -1 -3 -3 -1 -1 -1 -2 -1 -2 rlinecurve
          -1 -3 -1 -2 -2 vvcurveto
          -1 -3 0 -3 1 -3 rrcurveto
          -2 0 -1 1 -2 vhcurveto
          -1 32 callsubr
          0 32 callsubr
          1 -2 2 -2 2 -2 1 -1 rcurveline
          316 -318 rlineto
          endchar
        </CharString>
        <CharString name="m">
          364 -12 callsubr
          441 47 hstemhm
          93 47 302 49 303 47 hintmask 10111100
          794 23 rmoveto
          -12 10 -11 13 14 10 11 12 vhcurveto
          64 callsubr
          110 -89 89 -110 -75 -66 -42 -62 -35 vhcurveto
          62 -34 -65 42 -76 hhcurveto
          -61 -54 -27 -43 -36 hvcurveto
          47 vlineto
          13 -10 10 -14 16 callsubr
          -168 vlineto
          -8 vlineto
          30 callsubr
          -5 vlineto
          3 -9 8 -8 9 -1 rrcurveto
          3 hlineto
          3 hlineto
          hintmask 01111100
          2 83 callsubr
          hvcurveto
          2 3 2 1 1 hvcurveto
          7 4 4 7 8 vvcurveto
          64 callsubr
          83 67 69 84 84 67 -69 -83 vhcurveto
          30 callsubr
          hintmask 10111100
          -2 vlineto
          -3 vlineto
          1 -1 0 -1 -1 vvcurveto
          1 -1 0 -1 0 vvcurveto
          1 -1 0 0 -1 vvcurveto
          1 0 -1 -1 1 hvcurveto
          3 -3 rlineto
          -1 1 1 -1 1 hhcurveto
          hintmask 01111100
          -1 2 2 -2 2 hhcurveto
          hintmask 10111100
          0 1 -1 1 vhcurveto
          2 hlineto
          3 hlineto
          4 4 1 2 4 hvcurveto
          5 3 5 4 2 6 rrcurveto
          2 vlineto
          0 36 callsubr
          vvcurveto
          3 vlineto
          64 callsubr
          83 68 69 83 84 66 -69 -83 2 vhcurveto
          30 callsubr
          endchar
        </CharString>
        <CharString name="multiply">
          33 163 -21 420 -20 hstem
          512 520 rmoveto
          5 5 3 6 7 vvcurveto
          -11 callsubr
          -7 -6 -3 -5 -5 vhcurveto
          -167 -169 -166 168 rlineto
          5 -5 -7 4 -8 hhcurveto
          -14 -11 -11 -14 -8 4 -7 5 -5 hvcurveto
          168 -166 -169 -167 rlineto
          -5 -5 -3 -6 -7 vvcurveto
          81 callsubr
          7 6 3 5 5 vhcurveto
          167 169 166 -168 rlineto
          -5 79 callsubr
          51 callsubr
          14 8 -4 7 -5 5 hvcurveto
          -168 166 rlineto
          endchar
        </CharString>
        <CharString name="n">
          80 callsubr
          48 hstem
          93 47 303 48 vstem
          443 24 rmoveto
          -14 11 -10 13 13 11 10 14 vhcurveto
          63 callsubr
          109 -89 90 -110 -61 -55 -28 -43 -36 vhcurveto
          47 vlineto
          13 -10 11 -13 -14 -10 -11 -13 vhcurveto
          -167 vlineto
          -8 vlineto
          60 callsubr
          -6 vlineto
          0 1 -1 -1 vvcurveto
          -1 32 callsubr
          3 -6 6 -5 7 -2 rrcurveto
          6 hlineto
          7 7 3 6 4 hvcurveto
          3 3 1 4 1 4 rrcurveto
          4 vlineto
          63 callsubr
          83 2 67 68 83 hhcurveto
          84 67 -68 -83 hvcurveto
          60 callsubr
          endchar
        </CharString>
        <CharString name="nine">
          55 0 49 190 49 363 49 hstem
          66 49 365 51 vstem
          66 470 rmoveto
          -129 104 -102 127 70 62 29 48 42 vhcurveto
          -9 -50 -17 -48 -24 -42 -43 -73 -64 -50 -97 -4 rrcurveto
          -14 -1 -10 -11 -14 vvcurveto
          -13 11 -10 14 vhcurveto
          1 hlineto
          115 4 82 65 48 83 rrcurveto
          47 83 20 103 93 vvcurveto
          21 -1 20 -1 19 vhcurveto
          -1 2 0 1 -1 2 rrcurveto
          115 -13 -97 89 -120 hhcurveto
          -127 -104 -103 -127 hvcurveto
          231 -182 rmoveto
          -100 -82 80 102 100 82 81 100 102 81 -81 -100 -102 -81 -80 -102 hvcurveto
          endchar
        </CharString>
        <CharString name="ntilde">
          80 callsubr
          48 82 -19 callsubr
          94 47 303 48 hintmask 11010110
          444 24 rmoveto
          63 callsubr
          83 -67 68 -84 -83 -67 -68 -83 -2 vhcurveto
          60 callsubr
          -4 vlineto
          -1 -4 -1 -4 -3 -3 rrcurveto
          -6 -4 -7 -3 -7 hhcurveto
          -6 hlineto
          -7 2 -6 5 -3 6 rrcurveto
          -1 83 callsubr
          vvcurveto
          1 -1 1 0 vhcurveto
          6 vlineto
          63 callsubr
          8 vlineto
          167 vlineto
          13 10 11 14 13 10 -11 -13 vhcurveto
          -47 vlineto
          43 36 55 28 61 hhcurveto
          110 89 -90 -109 hvcurveto
          60 callsubr
          -14 -11 -10 -13 -13 -11 10 14 vhcurveto
          -259 550 -94 callsubr
        </CharString>
        <CharString name="numbersign">
          113 -4 238 -47 47 236 47 -47 234 hstemhm
          hintmask 10100000
          142 25 rmoveto
          -10 callsubr
          207 hlineto
          -28 -162 rlineto
          hintmask 10100000
          -10 callsubr
          117 -29 callsubr
          10 -13 hvcurveto
          -109 hlineto
          41 236 rlineto
          108 -29 callsubr
          10 -13 hvcurveto
          -100 -24 callsubr
          -207 -24 callsubr
          -118 hlineto
          15 callsubr
          11 -10 13 hvcurveto
          110 hlineto
          -41 -236 rlineto
          -109 hlineto
          -34 callsubr
          hintmask 01100000
          -13 11 -10 13 vhcurveto
          101 hlineto
          56 47 rmoveto
          41 236 rlineto
          207 hlineto
          -41 -236 rlineto
          endchar
        </CharString>
        <CharString name="o">
          38 -43 callsubr
          hstem
          70 9 callsubr
          vstem
          70 245 34 callsubr
          -133 104 -112 128 -89 callsubr
          129 103 112 133 -86 callsubr
          133 -103 112 -129 -89 callsubr
          -128 -104 -112 -133 hvcurveto
          48 hmoveto
          0 vlineto
          109 84 89 100 -89 callsubr
          100 84 -89 -109 -86 callsubr
          -109 -84 -88 -100 -89 callsubr
          -100 -84 88 109 hvcurveto
          endchar
        </CharString>
        <CharString name="oacute">
          -79 callsubr
          131 325 -90 callsubr
          hintmask 10111000
          -97 callsubr
        </CharString>
        <CharString name="ocircumflex">
          53 -43 callsubr
          -47 127 128 -20 hstemhm
          58 9 callsubr
          hintmask 11011100
          -102 callsubr
          183 396 -54 callsubr
        </CharString>
        <CharString name="odieresis">
          53 -43 callsubr
          80 86 hstem
          58 48 144 79 145 48 vstem
          -102 callsubr
          58 368 -106 callsubr
        </CharString>
        <CharString name="oe">
          468 0 48 188 49 157 50 hstem
          58 48 367 56 vstem
          720 hmoveto
          -41 callsubr
          4 vlineto
          67 callsubr
          -98 -84 -61 -87 -37 hvcurveto
          85 -36 -81 60 -95 hhcurveto
          -128 -103 -111 -133 -134 103 -111 128 96 81 60 86 35 hvcurveto
          -86 37 84 -60 98 hhcurveto
          -614 245 rmoveto
          109 83 88 100 101 83 -88 -109 -110 -83 -87 -101 -100 -83 87 110 vhcurveto
          614 199 rmoveto
          55 callsubr
          92 18 77 67 93 hhcurveto
          endchar
        </CharString>
        <CharString name="ograve">
          -79 callsubr
          239 325 -82 callsubr
          hintmask 10111000
          -93 callsubr
        </CharString>
        <CharString name="one">
          -252 29 callsubr
          169 48 vstem
          169 -16 callsubr
          643 vlineto
          1 6 -1 6 -3 6 -6 11 -16 4 -11 -6 -135 -82 rcurveline
          -12 -6 -4 -14 7 -13 rrcurveto
          -7 4 8 -5 9 hhcurveto
          4 5 2 2 3 hvcurveto
          99 58 rlineto
          -605 vlineto
          endchar
        </CharString>
        <CharString name="ordfeminine">
          -197 293 40 47 31 250 30 hstem
          58 31 233 31 vstem
          106 293 rmoveto
          220 38 callsubr
          -220 40 callsubr
          231 398 rmoveto
          -8 -7 -7 -8 hvcurveto
          -46 vlineto
          37 -27 -42 24 -48 hhcurveto
          -82 -65 -70 -85 -85 65 -71 82 48 42 25 37 27 hvcurveto
          -47 vlineto
          -8 7 -7 8 8 8 7 8 vhcurveto
          281 vlineto
          8 -8 7 -8 vhcurveto
          -132 -280 rmoveto
          -63 -53 54 71 69 53 56 63 65 52 -56 -69 -71 -52 -54 -65 hvcurveto
          endchar
        </CharString>
        <CharString name="ordmasculine">
          -197 293 40 78 39 216 39 hstem
          51 43 202 43 vstem
          194 411 rmoveto
          84 61 68 79 -3 callsubr
          78 -60 67 -83 -84 -61 -68 -79 18 callsubr
          -78 60 -67 83 vhcurveto
          -127 -118 rmoveto
          256 38 callsubr
          -256 40 callsubr
          129 157 rmoveto
          -58 -44 48 60 -3 callsubr
          58 41 48 59 58 44 -48 -60 18 callsubr
          -58 -41 -48 -59 vhcurveto
          endchar
        </CharString>
        <CharString name="oslash">
          53 -12 46 442 46 -1 -20 hstemhm
          58 53 418 53 hintmask 10111000
          319 -12 rmoveto
          152 111 124 143 -3 callsubr
          67 -24 62 -41 47 vhcurveto
          51 54 rlineto
          4 4 2 6 5 vvcurveto
          11 -9 8 -11 -6 -7 -3 -5 -5 vhcurveto
          -48 -52 rlineto
          hintmask 11011000
          38 -44 -58 23 -65 hhcurveto
          -152 -111 -124 -143 hvcurveto
          -2 vlineto
          -67 24 -61 40 -48 vhcurveto
          -50 -52 rlineto
          -4 -4 -2 -6 -5 vvcurveto
          -11 9 -8 11 6 7 3 5 5 vhcurveto
          48 49 rlineto
          -37 44 58 -23 65 hhcurveto
          2 46 rmoveto
          -53 -47 19 33 -37 hvcurveto
          297 310 rlineto
          30 -38 18 -49 -54 vvcurveto
          -2 vlineto
          -120 -87 -99 -121 vhcurveto
          -210 221 rmoveto
          2 vlineto
          120 87 99 121 53 47 -20 -33 37 vhcurveto
          -298 -309 rlineto
          -30 38 -17 49 54 vvcurveto
          endchar
        </CharString>
        <CharString name="otilde">
          53 -43 callsubr
          91 -19 callsubr
          58 9 callsubr
          hintmask 11010110
          -102 callsubr
          75 339 -94 callsubr
        </CharString>
        <CharString name="p">
          73 -184 -21 208 48 390 49 61 callsubr
          374 49 vstem
          93 -181 rmoveto
          -57 callsubr
          280 vlineto
          -58 42 68 -38 76 hhcurveto
          132 105 111 133 134 -105 109 -132 -76 -68 -38 -57 -42 hvcurveto
          71 -44 callsubr
          -209 72 callsubr
          104 4 83 82 99 hhcurveto
          104 84 -86 -108 73 callsubr
          -1 hvcurveto
          -101 1 -85 87 108 vvcurveto
          endchar
        </CharString>
        <CharString name="paragraph">
          -107 17 -21 704 -20 hstem
          333 53 vstem
          333 22 rmoveto
          -15 12 -11 15 15 11 11 15 vhcurveto
          651 vlineto
          15 -12 12 -15 vhcurveto
          -47 hlineto
          -151 -108 -79 -131 hvcurveto
          -2 vlineto
          -135 120 -76 154 vhcurveto
          6 hlineto
          endchar
        </CharString>
        <CharString name="parenleft">
          71 callsubr
          71 56 vstem
          119 28 34 callsubr
          -73 32 59 -52 81 -42 callsubr
          1 0 0 1 -42 callsubr
          15 12 12 16 -86 callsubr
          15 -12 13 -15 -89 callsubr
          -57 -37 31 62 -30 -86 callsubr
          -28 61 -14 90 100 -31 callsubr
          100 14 90 28 61 -89 callsubr
          30 62 37 30 57 1 -50 callsubr
          15 12 13 15 -86 callsubr
          15 -12 13 -15 -89 callsubr
          -82 -59 -52 -73 -33 -86 callsubr
          -34 -74 -14 -96 -105 -31 callsubr
          -105 14 -97 34 -73 vhcurveto
          endchar
        </CharString>
        <CharString name="parenright">
          71 callsubr
          253 56 vstem
          261 28 rmoveto
          34 73 14 97 105 -31 callsubr
          105 -14 96 -34 74 -89 callsubr
          73 -33 -59 52 -82 -42 callsubr
          -15 -12 -13 -15 -86 callsubr
          -15 12 -13 15 -89 callsubr
          57 -1 37 -30 30 -62 -50 callsubr
          28 -61 14 -90 -100 -31 callsubr
          -100 -14 -90 -28 -61 -89 callsubr
          -62 -30 -37 -31 -57 -42 callsubr
          -15 -12 -13 -15 -86 callsubr
          -16 12 -12 15 -89 callsubr
          1 0 0 1 -42 callsubr
          81 59 52 73 32 hvcurveto
          endchar
        </CharString>
        <CharString name="percent">
          237 -8 43 272 43 0 43 272 43 hstemhm
          55 52 204 52 98 52 204 52 hintmask 11011111
          208 350 -21 callsubr
          -62 -333 rmoveto
          -27 callsubr
          487 663 rlineto
          3 4 1 4 5 -30 callsubr
          -487 -663 rlineto
          -3 -4 -1 -4 -5 vvcurveto
          468 -25 -21 callsubr
          hintmask 10111111
          -404 401 rmoveto
          -56 -47 57 79 -3 callsubr
          3 callsubr
          406 -358 rmoveto
          -56 -47 57 79 -3 callsubr
          hintmask 11011111
          3 callsubr
          endchar
        </CharString>
        <CharString name="period">
          0 100 hstem
          82 100 vstem
          82 50 -9 callsubr
          endchar
        </CharString>
        <CharString name="periodcentered">
          251 93 hstem
          82 66 vstem
          82 311 rmoveto
          -27 vlineto
          -19 14 -14 19 19 14 14 19 vhcurveto
          27 vlineto
          19 -14 14 -19 -19 -14 -14 -19 vhcurveto
          endchar
        </CharString>
        <CharString name="plus">
          33 121 -21 217 67 216 -20 hstem
          281 67 vstem
          281 134 rmoveto
          -19 14 -15 19 19 15 15 19 vhcurveto
          183 183 vlineto
          18 15 14 19 19 -15 15 -18 hvcurveto
          -183 183 hlineto
          18 -15 15 -19 -19 -14 -15 -18 vhcurveto
          -183 -183 vlineto
          -19 -15 -15 -19 -19 15 -14 19 hvcurveto
          183 -183 hlineto
          endchar
        </CharString>
        <CharString name="q">
          73 -184 -21 207 49 390 49 hstem
          60 49 374 49 vstem
          483 -181 rmoveto
          81 callsubr
          15 10 88 callsubr
          418 vlineto
          10 vlineto
          10 vlineto
          209 vlineto
          13 -10 11 -15 -32 callsubr
          -13 vhcurveto
          -72 vlineto
          58 -43 -68 38 -77 hhcurveto
          -129 -106 -109 -134 -133 106 -111 129 -1 hvcurveto
          77 68 39 58 43 hvcurveto
          -374 148 rmoveto
          109 84 85 102 104 84 -85 -109 73 callsubr
          -1 vhcurveto
          -102 1 -84 87 108 vvcurveto
          endchar
        </CharString>
        <CharString name="question">
          -53 21 -21 653 47 hstem
          207 47 145 47 vstem
          207 162 rmoveto
          58 callsubr
          107 vlineto
          108 12 84 92 110 vvcurveto
          120 -97 97 -119 -80 -69 -43 -65 -37 vhcurveto
          -7 -11 3 -14 12 -7 11 -7 15 5 6 10 rrcurveto
          52 29 54 33 63 hhcurveto
          94 -1 75 -74 -95 vvcurveto
          -93 -75 -76 -94 16 callsubr
          -1 vlineto
          -3 vlineto
          -264 vmoveto
          58 callsubr
          22 vlineto
          -11 callsubr
          -12 -11 -11 -13 vhcurveto
          endchar
        </CharString>
        <CharString name="questiondown">
          -53 0 47 653 -20 hstem
          222 47 145 47 vstem
          222 538 rmoveto
          -125 vlineto
          -3 vlineto
          -1 vlineto
          -13 11 -10 12 94 75 -76 -93 -95 -75 -74 -94 -1 vhcurveto
          -63 -54 33 52 -29 hvcurveto
          -6 10 -15 5 -11 -7 -12 -7 -3 -14 7 -11 rrcurveto
          -65 37 69 -43 80 hhcurveto
          119 97 97 120 110 -84 92 -108 12 hvcurveto
          107 vlineto
          13 -11 10 -13 16 callsubr
          139 vmoveto
          -22 vlineto
          -13 11 -11 12 27 callsubr
          vhcurveto
          22 vlineto
          13 -11 10 -13 16 callsubr
          endchar
        </CharString>
        <CharString name="quotedbl">
          -177 463 -21 260 -20 hstem
          250 461 -63 callsubr
          -210 -215 -63 callsubr
          endchar
        </CharString>
        <CharString name="quotedblbase">
          -177 -105 194 hstem
          82 66 114 66 vstem
          54 -90 rmoveto
          -10 8 -5 7 9 25 14 18 18 vhcurveto
          18 18 9 30 56 vvcurveto
          25 vlineto
          19 -14 14 -19 -19 -14 -14 -19 -66 callsubr
        </CharString>
        <CharString name="quotedblleft">
          -177 509 194 hstem
          77 66 114 66 vstem
          351 688 rmoveto
          -77 callsubr
          -180 hmoveto
          -77 callsubr
          endchar
        </CharString>
        <CharString name="quotedblright">
          -177 510 194 hstem
          87 66 114 66 vstem
          59 525 rmoveto
          -10 8 -5 7 9 25 14 18 18 vhcurveto
          18 18 9 30 56 vvcurveto
          25 vlineto
          18 -15 15 -18 -18 -15 -15 -18 -66 callsubr
        </CharString>
        <CharString name="quoteleft">
          530 77 callsubr
          77 66 vstem
          171 688 rmoveto
          -77 callsubr
          endchar
        </CharString>
        <CharString name="quoteright">
          531 77 callsubr
          87 66 vstem
          59 525 rmoveto
          -81 callsubr
        </CharString>
        <CharString name="quotesinglbase">
          endchar
        </CharString>
        <CharString name="quotesingle">
          463 -21 260 -20 hstem
          70 461 -63 callsubr
          endchar
        </CharString>
        <CharString name="r">
          -148 21 -21 441 48 hstem
          93 48 vstem
          93 24 rmoveto
          -14 11 -10 14 12 11 10 14 vhcurveto
          215 vlineto
          2 0 2 2 4 vhcurveto
          7 20 19 50 33 44 rrcurveto
          44 34 44 36 64 hhcurveto
          27 callsubr
          14 -11 10 -13 -94 -65 -62 -58 -37 hvcurveto
          -3 -4 -2 -4 -2 -4 rrcurveto
          108 -4 callsubr
          -12 -14 -11 -10 -14 vhcurveto
          -441 vlineto
          endchar
        </CharString>
        <CharString name="registered">
          -171 381 -21 172 94 16 68 hstemhm
          34 20 -20 110 16 98 18 106 -20 20 hintmask 11110110
          208 360 rmoveto
          97 77 80 95 hvcurveto
          1 vlineto
          95 -76 79 -98 -97 -77 -80 -95 vhcurveto
          -1 vlineto
          -95 76 -79 98 vhcurveto
          19 vmoveto
          -88 -66 70 85 hvcurveto
          1 vlineto
          85 67 71 87 vhcurveto
          hintmask 11101101
          88 66 -70 -85 hvcurveto
          -1 vlineto
          -85 -67 -71 -87 vhcurveto
          56 56 rmoveto
          -4 7 -2 11 18 vvcurveto
          17 -8 10 -10 7 vhcurveto
          -10 7 -12 3 -4 1 rrcurveto
          0 -1 1 0 vhcurveto
          -53 -87 hlineto
          -5 -4 -3 -4 -5 -3 3 5 vhcurveto
          204 vlineto
          4 3 4 4 vhcurveto
          1 hlineto
          1 hlineto
          61 hlineto
          hintmask 11110110
          34 28 -28 -35 -25 -15 -22 -21 -10 hvcurveto
          -1 1 1 0 1 hhcurveto
          15 -8 15 -17 -25 vvcurveto
          -12 1 -8 2 -5 vhcurveto
          1 -4 2 -1 0 vvcurveto
          4 3 -2 -3 1 hvcurveto
          1 -5 -2 -4 -3 -1 rrcurveto
          -1 -2 -1 -1 hhcurveto
          -1 hlineto
          -4 -7 3 7 -3 hvcurveto
          -3 144 rmoveto
          26 -21 21 -26 vhcurveto
          -54 -94 52 hlineto
          3 hlineto
          25 21 22 25 hvcurveto
          endchar
        </CharString>
        <CharString name="s">
          -95 0 48 397 45 hstem
          62 70 34 callsubr
          40 -32 62 -37 79 -1 -50 callsubr
          48 40 14 25 34 -86 callsubr
          33 25 23 33 41 -31 callsubr
          41 -23 38 -32 21 -89 callsubr
          -34 19 -38 14 -47 7 rrcurveto
          -2 0 hlineto
          -45 7 -33 12 -22 15 -50 callsubr
          -19 15 -9 14 20 -31 callsubr
          20 11 20 20 16 -89 callsubr
          17 21 32 11 40 -42 callsubr
          48 36 -25 -24 36 -86 callsubr
          11 -7 15 3 7 11 -50 callsubr
          7 11 -3 15 -11 8 -50 callsubr
          24 -38 -45 29 -63 -42 callsubr
          -50 -41 -13 -20 -29 -86 callsubr
          -31 -23 -22 -34 -39 -31 callsubr
          -38 22 -32 31 -18 -89 callsubr
          28 -20 39 -10 44 -8 2 -1 rcurveline
          0 vlineto
          48 -8 35 -12 21 -16 -50 callsubr
          25 -21 9 -16 1 -23 -50 callsubr
          -22 -13 -22 -24 -16 -89 callsubr
          -18 -22 -33 -12 -38 -42 callsubr
          -62 -54 32 25 -34 -86 callsubr
          -11 9 -15 -2 -8 -10 -50 callsubr
          -8 -10 1 -13 10 -9 rrcurveto
          endchar
        </CharString>
        <CharString name="scaron">
          -90 0 48 397 45 0 230 hstemhm
          373 48 hintmask 10110000
          255 649 -52 callsubr
          -256 -637 rmoveto
          -10 9 -1 13 8 10 -50 callsubr
          8 10 15 2 11 -9 -50 callsubr
          -25 34 54 -32 62 -42 callsubr
          38 33 12 18 22 -86 callsubr
          24 16 13 22 22 -31 callsubr
          -1 23 -9 16 -25 21 -50 callsubr
          -21 16 -35 12 -48 8 -50 callsubr
          -2 1 -44 8 -39 10 -28 20 rlinecurve
          0 vlineto
          -31 18 -22 32 38 -31 callsubr
          39 22 34 31 23 -89 callsubr
          20 29 41 13 50 -42 callsubr
          63 45 -29 -24 38 -86 callsubr
          11 -8 3 -15 -7 -11 -50 callsubr
          -7 -11 -15 -3 -11 7 -50 callsubr
          hintmask 11010000
          24 -36 -36 25 -48 -42 callsubr
          -40 -32 -11 -17 -21 -86 callsubr
          -20 -16 -11 -20 -20 -31 callsubr
          -20 9 -14 19 -15 -89 callsubr
          22 -15 33 -12 45 -7 rrcurveto
          0 2 vlineto
          47 -7 38 -14 34 -19 -50 callsubr
          32 -21 23 -38 -41 -31 callsubr
          -41 -23 -33 -33 -25 -89 callsubr
          -25 -34 -40 -14 -48 -42 callsubr
          -79 1 -62 37 -40 32 -50 callsubr
          endchar
        </CharString>
        <CharString name="semicolon">
          -347 -84 -21 524 100 hstemhm
          68 100 -81 66 hintmask 11100000
          68 469 -9 callsubr
          -9 -559 rmoveto
          -47 callsubr
          hintmask 11010000
          -40 callsubr
          endchar
        </CharString>
        <CharString name="seven">
          0 21 -21 648 48 hstem
          181 2 rmoveto
          -2 4 2 0 4 hhcurveto
          9 9 6 9 4 hvcurveto
          271 644 rlineto
          3 4 1 4 5 vvcurveto
          3 -1 2 -1 3 vhcurveto
          -2 6 -5 6 -6 3 -5 2 -5 0 -5 -1 rrcurveto
          -370 hlineto
          4 callsubr
          338 hlineto
          -259 -614 -4 -12 6 -15 12 -5 rlinecurve
          endchar
        </CharString>
        <CharString name="six">
          55 0 49 364 49 188 49 hstem
          66 49 366 48 vstem
          64 269 rmoveto
          -16 0 -15 2 -15 vhcurveto
          -124 4 102 -99 125 hhcurveto
          129 103 103 128 127 -103 104 -129 -69 -62 -31 -48 -42 hvcurveto
          10 50 16 49 24 41 44 73 62 50 98 4 rrcurveto
          13 1 11 11 14 vvcurveto
          -1 -11 callsubr
          -1 -116 -4 -81 -63 -48 -85 -48 -83 -19 -102 -1 -93 rrcurveto
          51 -38 rmoveto
          100 82 82 100 102 82 -82 -100 -100 -82 -82 -102 -92 -77 69 89 -12 vhcurveto
          1 2 0 2 3 vvcurveto
          -1 4 -1 4 5 vvcurveto
          endchar
        </CharString>
        <CharString name="slash">
          -165 29 callsubr
          91 1 34 callsubr
          -1 3 3 0 4 -42 callsubr
          9 9 5 10 4 hvcurveto
          273 648 rlineto
          0 vlineto
          6 13 -6 14 -13 5 -50 callsubr
          -13 5 -13 -6 -6 -12 -273 -648 rcurveline
          0 vlineto
          -5 -13 6 -14 12 -6 rrcurveto
          endchar
        </CharString>
        <CharString name="space">
          -287 endchar
        </CharString>
        <CharString name="sterling">
          57 0 47 258 48 310 47 hstemhm
          66 141 -51 51 hintmask 11110000
          66 13 rmoveto
          -7 6 -6 7 vhcurveto
          482 hlineto
          13 11 10 13 76 callsubr
          -354 258 278 -28 callsubr
          -278 119 hlineto
          64 17 51 33 33 vhcurveto
          28 28 37 15 48 hhcurveto
          79 44 -34 -46 40 hvcurveto
          -5 5 6 -4 9 hhcurveto
          87 callsubr
          14 7 -3 7 -4 5 hvcurveto
          52 -44 -58 41 -98 hhcurveto
          -61 -52 -21 -37 -37 hvcurveto
          hintmask 11101000
          -42 -42 -23 -64 -75 vvcurveto
          -118 -66 vlineto
          hintmask 11110000
          4 callsubr
          hintmask 11101000
          66 -260 hlineto
          -78 -18 rlineto
          hintmask 11110000
          -8 -2 -4 -5 -7 vvcurveto
          endchar
        </CharString>
        <CharString name="t">
          -187 21 -21 442 48 206 -20 hstem
          127 50 vstem
          240 490 rmoveto
          -63 182 hlineto
          12 -13 12 -13 -12 -12 -12 -12 vhcurveto
          -182 -61 vlineto
          -24 0 -12 -12 -12 0 -12 24 hvcurveto
          61 -357 hlineto
          -49 37 -36 49 12 13 12 12 12 -13 13 -12 -12 -24 12 24 vhcurveto
          357 63 vlineto
          12 12 12 12 12 -12 12 -12 hvcurveto
          endchar
        </CharString>
        <CharString name="thorn">
          73 -143 -21 152 47 440 47 212 28 callsubr
          405 53 vstem
          93 -139 rmoveto
          -15 11 -10 14 14 10 10 15 vhcurveto
          249 vlineto
          -64 42 66 -58 102 hhcurveto
          123 125 101 166 -3 callsubr
          166 -125 99 -123 -101 -65 -59 -67 -44 vhcurveto
          313 vlineto
          15 -11 10 -14 -14 -10 -10 -15 vhcurveto
          254 -674 rmoveto
          -106 -102 88 131 -3 callsubr
          130 102 89 106 107 93 -86 -134 18 callsubr
          -137 -89 -81 -111 vhcurveto
          endchar
        </CharString>
        <CharString name="three">
          23 0 51 599 50 hstem
          436 50 vstem
          483 664 rmoveto
          2 3 1 4 4 vvcurveto
          85 callsubr
          vhcurveto
          -327 hlineto
          -14 -11 -11 -14 -14 11 -11 14 hvcurveto
          268 hlineto
          -174 -179 -10 -10 0 -16 10 -10 rlinecurve
          0 1 0 0 vhcurveto
          -6 79 callsubr
          48 48 -18 -37 36 hvcurveto
          37 -36 18 -48 -48 vvcurveto
          -48 -18 -48 -37 -37 vhcurveto
          -36 -37 -48 20 callsubr
          -9 -10 -10 -10 0 -16 10 -9 -50 callsubr
          -47 46 61 -23 60 hhcurveto
          49 callsubr
          61 61 24 46 46 vhcurveto
          47 46 23 61 61 vvcurveto
          61 -23 61 -46 46 vhcurveto
          -34 34 -42 21 -44 9 181 186 rcurveline
          2 2 2 3 1 3 rrcurveto
          endchar
        </CharString>
        <CharString name="tilde">
          -87 595 37 callsubr
          141 598 -64 callsubr
        </CharString>
        <CharString name="trademark">
          103 421 -21 279 21 hstem
          123 20 155 21 211 21 vstem
          123 410 rmoveto
          -6 5 -4 5 6 4 4 6 vhcurveto
          269 91 vlineto
          6 4 5 6 5 -4 5 -6 hvcurveto
          -202 hlineto
          -5 -5 -5 -5 -6 5 -5 5 hvcurveto
          91 hlineto
          407 -269 rmoveto
          -6 4 -4 6 6 5 4 6 vhcurveto
          278 vlineto
          2 -1 2 -1 2 vhcurveto
          -1 1 90 callsubr
          1 -5 3 -7 -1 -3 -5 -106 -148 rcurveline
          -107 148 -3 5 -7 1 -5 -3 rlinecurve
          0 0 0 -1 vvcurveto
          -3 -2 -2 -3 -3 vvcurveto
          -278 vlineto
          -6 5 -4 6 6 4 4 6 vhcurveto
          247 vlineto
          96 -133 rlineto
          -4 3 3 -1 3 hhcurveto
          1 hlineto
          3 4 1 4 2 hvcurveto
          96 133 rlineto
          endchar
        </CharString>
        <CharString name="two">
          3 46 callsubr
          441 48 vstem
          53 7 rmoveto
          -5 4 7 -2 7 hhcurveto
          4 hlineto
          390 hlineto
          27 callsubr
          82 callsubr
          hvcurveto
          -331 hlineto
          280 253 rlineto
          50 46 25 62 62 vvcurveto
          54 -19 55 -41 44 vhcurveto
          51 -45 -62 24 -61 hhcurveto
          -55 -56 -20 -39 -44 hvcurveto
          -34 -32 -10 -8 -1 -16 10 -10 rlinecurve
          8 -10 16 -1 10 10 34 31 rcurveline
          31 35 43 15 44 hhcurveto
          49 49 -20 -39 35 hvcurveto
          31 -34 16 -43 -43 vvcurveto
          -50 -21 -48 -39 -36 vhcurveto
          -327 -295 -10 -10 0 -15 9 -11 rlinecurve
          endchar
        </CharString>
        <CharString name="twosuperior">
          -191 endchar
        </CharString>
        <CharString name="u">
          26 0 48 443 -20 hstem
          83 48 302 45 callsubr
          0 vlineto
          -110 88 -90 110 -89 callsubr
          112 89 90 110 hvcurveto
          13 callsubr
          -11 10 -14 -89 callsubr
          -12 -12 -38 callsubr
          0 vlineto
          -84 -68 -67 -84 -1 -89 callsubr
          -83 1 -67 67 84 vvcurveto
          13 callsubr
          -11 10 -13 vhcurveto
          0 vlineto
          0 callsubr
          30 callsubr
          endchar
        </CharString>
        <CharString name="uacute">
          26 13 -22 117 194 endchar
        </CharString>
        <CharString name="ucircumflex">
          26 0 48 650 -71 callsubr
          199 441 -101 callsubr
        </CharString>
        <CharString name="udieresis">
          26 0 48 522 86 hstem
          83 48 113 79 110 45 callsubr
          64 callsubr
          87 callsubr
          13 -89 callsubr
          13 11 -38 callsubr
          -84 67 -67 83 -1 -89 callsubr
          84 1 68 67 84 -31 callsubr
          13 callsubr
          12 10 12 -89 callsubr
          14 11 -38 callsubr
          -110 -89 -90 -112 -89 callsubr
          -110 -88 90 110 -86 callsubr
          75 413 -106 callsubr
        </CharString>
        <CharString name="ugrave">
          26 0 48 653 -71 callsubr
          254 370 -96 callsubr
        </CharString>
        <CharString name="underscore">
          13 -160 44 hstem
          -2 -160 rmoveto
          604 hlineto
          12 10 10 12 12 -10 10 -12 hvcurveto
          -604 hlineto
          -12 -10 -10 -12 -12 10 -10 12 hvcurveto
          endchar
        </CharString>
        <CharString name="v">
          -5 -12 callsubr
          hstemhm
          hintmask 01000000
          255 2 rmoveto
          -1 1 0 0 1 hhcurveto
          hintmask 10000000
          -1 3 2 0 3 hhcurveto
          5 7 2 5 4 hvcurveto
          3 4 2 4 1 4 183 434 rcurveline
          5 12 -5 14 -12 5 -12 5 -15 -6 -4 -12 -163 -386 rcurveline
          -23 callsubr
          -3 3 -3 rrcurveto
          -1 2 1 -1 2 hhcurveto
          endchar
        </CharString>
        <CharString name="w">
          274 29 callsubr
          261 2 rmoveto
          -1 3 3 -1 3 hhcurveto
          8 10 6 9 3 hvcurveto
          36 callsubr
          0 vhcurveto
          113 270 114 -271 1 -1 2 -8 9 -6 8 -1 rlinecurve
          3 hlineto
          2 hlineto
          4 4 2 3 4 hvcurveto
          4 3 3 4 2 5 183 436 rcurveline
          5 12 -6 14 -12 5 -11 5 -15 -6 -5 -12 -162 -386 rcurveline
          -113 269 rlineto
          9 -4 -10 6 -10 hhcurveto
          -9 -10 -6 -9 -4 hvcurveto
          -113 -269 -23 callsubr
          -4 5 -2 rrcurveto
          -1 1 1 -1 2 hhcurveto
          endchar
        </CharString>
        <CharString name="x">
          -17 29 callsubr
          79 5 rmoveto
          -3 5 5 -2 4 hhcurveto
          7 8 3 7 4 hvcurveto
          142 193 141 -193 rlineto
          -7 4 8 -3 8 hhcurveto
          4 5 2 3 3 hvcurveto
          12 8 2 14 -7 11 -151 205 rcurveline
          151 206 7 12 -2 14 -12 8 rlinecurve
          -9 7 -15 -2 -8 -11 -141 -193 rcurveline
          -142 193 -7 11 -16 2 -10 -7 rlinecurve
          -10 -8 -2 -14 7 -12 150 -206 rcurveline
          -150 -205 -7 -11 2 -14 10 -8 rlinecurve
          endchar
        </CharString>
        <CharString name="y">
          1 -191 48 144 49 439 -20 21 -20 hstemhm
          52 48 302 48 hintmask 11011100
          52 201 rmoveto
          -110 89 -89 109 -1 vhcurveto
          61 54 28 42 37 hvcurveto
          -32 vlineto
          -101 -1 -82 -81 -102 hhcurveto
          -28 -28 7 12 -24 hvcurveto
          -12 3 -13 -3 -6 -12 -6 -11 5 -14 11 -7 rrcurveto
          -14 31 34 -9 36 hhcurveto
          129 104 102 128 hvcurveto
          153 vlineto
          9 vlineto
          63 callsubr
          3 -1 4 -2 3 vhcurveto
          -1 3 -3 3 -2 2 -4 2 -4 2 -4 1 rrcurveto
          -3 hlineto
          -3 hlineto
          hintmask 11101100
          -1 -1 -1 -1 hhcurveto
          -2 hlineto
          -3 -1 -4 -2 -2 -3 rrcurveto
          -1 0 -1 -1 hhcurveto
          -1 -1 -1 -1 vvcurveto
          -3 -3 -1 -5 -4 vvcurveto
          60 callsubr
          -84 -1 -67 -67 -84 hhcurveto
          -83 -67 67 84 hvcurveto
          63 callsubr
          hintmask 11011100
          13 -11 10 -14 16 callsubr
          60 callsubr
          endchar
        </CharString>
        <CharString name="yacute">
          1 -18 -22 121 194 endchar
        </CharString>
        <CharString name="ydieresis">
          1 -191 48 0 144 0 49 520 86 hstem
          52 48 111 79 112 48 vstem
          52 201 rmoveto
          63 callsubr
          13 11 10 12 14 11 -10 -13 vhcurveto
          60 callsubr
          -84 67 -67 83 84 67 67 84 1 vhcurveto
          63 callsubr
          4 1 5 3 3 vhcurveto
          1 36 callsubr
          vvcurveto
          83 callsubr
          hhcurveto
          2 3 4 2 3 1 rrcurveto
          2 hlineto
          1 36 callsubr
          hhcurveto
          3 hlineto
          3 hlineto
          4 -1 4 -2 4 -2 2 -2 3 -3 1 -3 rrcurveto
          2 -3 1 -4 -3 vvcurveto
          60 callsubr
          -9 vlineto
          -153 vlineto
          -128 -104 -102 -129 -36 -34 9 14 -31 vhcurveto
          -11 7 -5 14 6 11 6 12 13 3 12 -3 rrcurveto
          -12 24 28 -7 28 hhcurveto
          102 82 81 101 1 hvcurveto
          32 vlineto
          -42 -37 -54 -28 -61 hhcurveto
          -109 1 -89 89 110 vvcurveto
          73 412 -106 callsubr
        </CharString>
        <CharString name="yen">
          99 0 222 -55 55 100 55 hstemhm
          113 230 -48 48 -48 230 hintmask 10110000
          295 -16 callsubr
          hintmask 01110000
          143 154 vlineto
          hintmask 10100100
          16 12 12 16 14 -12 13 -16 hvcurveto
          hintmask 10110000
          -154 100 154 hlineto
          hintmask 10100100
          16 12 12 15 16 -12 12 -16 hvcurveto
          -126 hlineto
          206 280 -35 callsubr
          205 -280 rcurveline
          -124 hlineto
          hintmask 10110000
          -16 -12 -12 -16 -15 12 -12 16 hvcurveto
          hintmask 10101000
          154 -100 -154 hlineto
          hintmask 01110000
          -16 -12 -13 -14 -16 12 -12 16 hvcurveto
          hintmask 01101000
          154 -143 hlineto
          endchar
        </CharString>
        <CharString name="z">
          -33 0 48 390 48 hstem
          358 438 rmoveto
          -289 -396 rlineto
          -5 -4 -3 -6 -7 vvcurveto
          -1 vlineto
          -3 0 -3 1 -3 vhcurveto
          0 1 0 -1 vvcurveto
          -8 3 9 -6 10 hhcurveto
          320 hlineto
          13 11 10 14 14 -11 10 -13 hvcurveto
          -274 hlineto
          288 395 5 3 3 5 1 5 rlinecurve
          3 8 -2 8 -6 6 -1 1 rcurveline
          -3 3 -5 3 -6 2 -6 -1 rlinecurve
          -317 hlineto
          -13 -11 -10 -14 81 callsubr
          hvcurveto
          endchar
        </CharString>
        <CharString name="zero">
          123 46 callsubr
          65 49 387 49 vstem
          132 106 34 callsubr
          -63 43 61 -43 71 -42 callsubr
          71 61 43 63 43 -86 callsubr
          42 64 26 86 94 -31 callsubr
          94 -26 86 -42 65 -89 callsubr
          62 -43 -61 43 -71 -42 callsubr
          -71 -61 -43 -62 -43 -86 callsubr
          -43 -65 -24 -86 -94 -31 callsubr
          -94 24 -86 43 -64 vhcurveto
          41 461 34 callsubr
          55 36 48 29 50 -42 callsubr
          49 callsubr
          -89 callsubr
          50 47 -29 -55 37 -86 callsubr
          36 -54 24 -77 -86 -31 callsubr
          -86 -24 -77 -36 -54 -89 callsubr
          -53 -37 -47 -31 -50 -42 callsubr
          -50 -48 31 53 -36 -86 callsubr
          -36 54 -23 77 86 -31 callsubr
          86 23 77 36 54 vhcurveto
          endchar
        </CharString>
</ttFont>
